<svg xmlns="http://www.w3.org/2000/svg" width="386" height="309" viewBox="0 0 386 309">
  <defs>
    <linearGradient id="1@svg-a" x1="37.099%" x2="64.051%" y1="-39.844%" y2="95.208%">
      <stop offset="0%" stop-color="#FDB714"/>
      <stop offset="100%" stop-color="#FDB714" stop-opacity="0"/>
    </linearGradient>
    <linearGradient id="1@svg-b" x1="119.19%" x2="8.959%" y1="115.201%" y2="26.743%">
      <stop offset="0%" stop-color="#0097B1"/>
      <stop offset="100%" stop-color="#0097B1" stop-opacity="0"/>
    </linearGradient>
    <linearGradient id="1@svg-c" x1="148.768%" x2="21.811%" y1="45.355%" y2="51.653%">
      <stop offset="0%" stop-color="#0097B1"/>
      <stop offset="100%" stop-color="#0097B1" stop-opacity="0"/>
    </linearGradient>
    <linearGradient id="1@svg-d" x1="83.3%" x2="39.087%" y1="67.045%" y2="50.327%">
      <stop offset="0%" stop-color="#573EA0"/>
      <stop offset="100%" stop-color="#573EA0" stop-opacity="0"/>
    </linearGradient>
    <linearGradient id="1@svg-e" x1="42.369%" x2="50.341%" y1="25.865%" y2="67.275%">
      <stop offset="0%" stop-color="#573EA0"/>
      <stop offset="100%" stop-color="#573EA0" stop-opacity="0"/>
    </linearGradient>
    <linearGradient id="1@svg-f" x1="-39.267%" x2="104.955%" y1="-57.178%" y2="103.051%">
      <stop offset="0%" stop-color="#040242"/>
      <stop offset="100%" stop-color="#040242" stop-opacity="0"/>
    </linearGradient>
    <linearGradient id="1@svg-g" x1="39.919%" x2="51.642%" y1="-18.274%" y2="53.917%">
      <stop offset="0%" stop-color="#F19049"/>
      <stop offset="100%" stop-color="#F19049" stop-opacity="0"/>
    </linearGradient>
    <linearGradient id="1@svg-h" x1="55.378%" x2="61.632%" y1="63.106%" y2="81.792%">
      <stop offset="0%" stop-color="#573EA0"/>
      <stop offset="100%" stop-color="#573EA0" stop-opacity="0"/>
    </linearGradient>
    <linearGradient id="1@svg-i" x1="13.28%" x2="83.848%" y1="-50.473%" y2="79.448%">
      <stop offset="0%" stop-color="#0097B1"/>
      <stop offset="100%" stop-color="#0097B1" stop-opacity="0"/>
    </linearGradient>
    <linearGradient id="1@svg-j" x1="123.412%" x2="24.267%" y1="232.71%" y2="-27.343%">
      <stop offset="0%" stop-color="#040242"/>
      <stop offset="100%" stop-color="#040242" stop-opacity="0"/>
    </linearGradient>
    <linearGradient id="1@svg-k" x1="15.52%" x2="56.066%" y1="-52.626%" y2="66.326%">
      <stop offset="0%" stop-color="#0097B1"/>
      <stop offset="100%" stop-color="#0097B1" stop-opacity="0"/>
    </linearGradient>
    <linearGradient id="1@svg-l" x1="18.369%" x2="54.772%" y1="-57.701%" y2="67.3%">
      <stop offset="0%" stop-color="#0097B1"/>
      <stop offset="100%" stop-color="#0097B1" stop-opacity="0"/>
    </linearGradient>
    <linearGradient id="1@svg-m" x1="88.017%" x2="47.641%" y1="138.831%" y2="65.234%">
      <stop offset="0%" stop-color="#0097B1"/>
      <stop offset="100%" stop-color="#0097B1" stop-opacity="0"/>
    </linearGradient>
    <linearGradient id="1@svg-n" x1="40.784%" x2="66.772%" y1="-12.626%" y2="54.964%">
      <stop offset="0%" stop-color="#F19049"/>
      <stop offset="100%" stop-color="#F19049" stop-opacity="0"/>
    </linearGradient>
    <linearGradient id="1@svg-o" x1="40.982%" x2="71.388%" y1="-28.114%" y2="100.886%">
      <stop offset="0%" stop-color="#F19049"/>
      <stop offset="100%" stop-color="#F19049" stop-opacity="0"/>
    </linearGradient>
    <linearGradient id="1@svg-p" x1="25.437%" x2="63.411%" y1="-3.158%" y2="71.801%">
      <stop offset="0%" stop-color="#F19049"/>
      <stop offset="100%" stop-color="#F19049" stop-opacity="0"/>
    </linearGradient>
    <linearGradient id="1@svg-q" x1="-29.98%" x2="87.129%" y1="53.303%" y2="42.145%">
      <stop offset="0%" stop-color="#F19049"/>
      <stop offset="100%" stop-color="#F19049" stop-opacity="0"/>
    </linearGradient>
    <linearGradient id="1@svg-r" x1="114.881%" x2="33.924%" y1="163.712%" y2="52.91%">
      <stop offset="0%" stop-color="#F19049"/>
      <stop offset="100%" stop-color="#F19049" stop-opacity="0"/>
    </linearGradient>
    <linearGradient id="1@svg-s" x1="100.968%" x2="-14.009%" y1="108.361%" y2="-27.281%">
      <stop offset="0%" stop-color="#040242"/>
      <stop offset="100%" stop-color="#040242" stop-opacity="0"/>
    </linearGradient>
    <linearGradient id="1@svg-t" x1="89%" x2="-53.431%" y1="87.275%" y2="-1.975%">
      <stop offset="0%" stop-color="#040242"/>
      <stop offset="100%" stop-color="#040242" stop-opacity="0"/>
    </linearGradient>
    <linearGradient id="1@svg-u" x1="71.706%" x2="33.853%" y1="130.88%" y2="15.417%">
      <stop offset="0%" stop-color="#573EA0"/>
      <stop offset="100%" stop-color="#573EA0" stop-opacity="0"/>
    </linearGradient>
    <linearGradient id="1@svg-v" x1="79.044%" x2="43.905%" y1="155.166%" y2="51.728%">
      <stop offset="0%" stop-color="#F5EBFD"/>
      <stop offset="100%" stop-color="#F5EBFD" stop-opacity="0"/>
    </linearGradient>
    <linearGradient id="1@svg-w" x1="122.2%" x2="24.228%" y1="-33.359%" y2="67.044%">
      <stop offset="0%" stop-color="#0097B1"/>
      <stop offset="100%" stop-color="#0097B1" stop-opacity="0"/>
    </linearGradient>
    <linearGradient id="1@svg-x" x1="66.956%" x2="49.333%" y1="6.722%" y2="58.303%">
      <stop offset="0%" stop-color="#F5EBFD"/>
      <stop offset="100%" stop-color="#FFF" stop-opacity="0"/>
    </linearGradient>
    <linearGradient id="1@svg-y" x1="30.946%" x2="64.935%" y1="-21.974%" y2="67.612%">
      <stop offset="0%" stop-color="#F19049"/>
      <stop offset="100%" stop-color="#F19049" stop-opacity="0"/>
    </linearGradient>
    <linearGradient id="1@svg-z" x1="123.602%" x2="-5.788%" y1="80.023%" y2="36.844%">
      <stop offset="0%" stop-color="#F19049"/>
      <stop offset="100%" stop-color="#F19049" stop-opacity="0"/>
    </linearGradient>
    <linearGradient id="1@svg-A" x1="23.975%" x2="71.172%" y1="133.888%" y2="15.866%">
      <stop offset="0%" stop-color="#F19049"/>
      <stop offset="100%" stop-color="#F19049" stop-opacity="0"/>
    </linearGradient>
  </defs>
  <g fill="none" transform="translate(-65 10)">
    <path fill="#F5EBFD" d="M549.486301,142.811413 C548.938356,149.316848 547.842466,155.959239 546.19863,162.704348 C536.746575,201.908152 509.691781,243.953804 473.561644,279.767935 C472.671233,280.658152 471.780822,281.54837 470.856164,282.404348 C464.794521,288.293478 458.527397,293.977174 452.020548,299.455435 C434.691781,314.075543 415.924658,327.154891 396.40411,337.905978 C392.568493,340.028804 388.732877,342.048913 384.828767,343.966304 C382.465753,345.130435 380.068493,346.294565 377.671233,347.390217 C376.609589,347.869565 375.547945,348.383152 374.486301,348.8625 C373.253425,349.410326 371.986301,349.958152 370.753425,350.505978 C359.246575,355.470652 347.226027,359.750543 334.863014,363.311413 C328.047945,365.297283 321.164384,367.077717 314.178082,368.618478 C314.178082,368.618478 314.178082,368.618478 314.143836,368.618478 C307.979452,369.988043 301.746575,371.220652 295.445205,372.316304 C295.205479,372.350543 294.965753,372.384783 294.691781,372.453261 C287.568493,373.65163 280.376712,374.644565 273.184932,375.432065 C270.239726,375.740217 267.294521,376.04837 264.349315,376.322283 C257.739726,376.904348 251.130137,377.315217 244.520548,377.58913 C231.40411,378.102717 218.287671,377.965761 205.342466,377.2125 C203.321918,377.109783 201.335616,376.972826 199.349315,376.83587 C189.828767,376.151087 180.376712,375.089674 171.09589,373.720109 C166.849315,373.103804 162.636986,372.384783 158.458904,371.631522 C152.739726,370.604348 147.123288,369.405978 141.575342,368.104891 C130.993151,365.605435 120.684932,362.66087 110.856164,359.271196 C110.034247,358.997283 109.212329,358.68913 108.390411,358.415217 C90.8219178,352.149457 74.6575342,344.445652 60.4794521,335.338043 C56.5753425,332.838587 52.8082192,330.202174 49.2123288,327.463043 C31.6780822,314.178261 18.0479452,298.428261 9.7260274,280.35 C-5.92465753,246.247826 -0.787671233,207.763043 13.6986301,172.394022 C28.4246575,136.477174 52.739726,103.744565 74.7260274,82.1396739 C170.787671,-12.3945652 345.136986,-16.7771739 453.527397,26.261413 C496.335616,43.2440217 528.835616,67.6222826 542.191781,96.7940217 C548.69863,110.797826 550.890411,126.37663 549.486301,142.811413 Z"/>
    <path fill="url(#1@svg-a)" d="M546.232877,162.704348 C536.780822,201.908152 509.726027,243.953804 473.59589,279.767935 C472.705479,280.658152 471.815068,281.54837 470.890411,282.404348 C464.828767,288.293478 458.561644,293.977174 452.054795,299.455435 C434.726027,314.075543 415.958904,327.154891 396.438356,337.905978 C392.60274,340.028804 388.767123,342.048913 384.863014,343.966304 C382.5,345.130435 380.10274,346.294565 377.705479,347.390217 C376.643836,347.869565 375.582192,348.383152 374.520548,348.8625 C373.287671,349.410326 372.020548,349.958152 370.787671,350.505978 C359.280822,355.470652 347.260274,359.750543 334.89726,363.311413 C328.082192,365.297283 321.19863,367.077717 314.212329,368.618478 C314.212329,368.618478 314.212329,368.618478 314.178082,368.618478 C308.013699,369.988043 301.780822,371.220652 295.479452,372.316304 C295.239726,372.350543 295,372.384783 294.726027,372.453261 C287.60274,373.65163 280.410959,374.644565 273.219178,375.432065 C270.273973,375.740217 267.328767,376.04837 264.383562,376.322283 C257.773973,376.904348 251.164384,377.315217 244.554795,377.58913 C231.438356,378.102717 218.321918,377.965761 205.376712,377.2125 C203.356164,377.109783 201.369863,376.972826 199.383562,376.83587 C189.863014,376.151087 180.410959,375.089674 171.130137,373.720109 C166.883562,373.103804 162.671233,372.384783 158.493151,371.631522 C152.773973,370.604348 147.157534,369.405978 141.609589,368.104891 C131.027397,365.605435 120.719178,362.66087 110.890411,359.271196 C110.068493,358.997283 109.246575,358.68913 108.424658,358.415217 C90.8561644,352.149457 74.6917808,344.445652 60.5136986,335.338043 C56.609589,332.838587 52.8424658,330.202174 49.2465753,327.463043 C31.7123288,314.178261 18.0821918,298.428261 9.76027397,280.35 C-5.89041096,246.247826 -0.753424658,207.763043 13.7328767,172.394022 C36.6438356,186.569022 65.5136986,199.888043 100,206.461957 C140.308219,214.165761 175.479452,208.619022 244.178082,197.217391 C343.184932,180.782609 350.547945,168.456522 414.726027,162.293478 C460.787671,157.87663 510.890411,153.083152 546.232877,162.704348 Z" opacity=".39"/>
    <g transform="translate(50 86)">
      <path fill="#040242" d="M138.270361 72.076815C138.201928 73.2735363 137.996627 74.4018735 137.551807 75.5644028 135.498795 81.0351288 102.89012 79.0177986 102.89012 79.0177986 102.89012 79.0177986 102.89012 79.0177986 102.89012 79.0177986 102.753253 78.8126464 96.2178313 69.9569087 100.939759 57.1007026 105.73012 44.1077283 107.783133 42.3981265 116.679518 42.7400468 125.575904 43.0819672 133.445783 46.1592506 135.156627 55.3911007 136.525301 62.6740047 138.50988 67.6318501 138.270361 72.076815zM389.73012 65.4777518C389.661687 66.5377049 389.559036 67.6318501 389.387952 68.7259953 386.992771 84.7962529 363.725301 78.6416862 363.725301 78.6416862L348.327711 65.6487119C348.327711 65.6487119 347.369639 62.9133489 347.266988 58.7761124 347.164337 54.741452 347.882892 49.3391101 351.06506 43.765808 357.566265 32.4824356 358.93494 35.2177986 362.698795 31.1147541 366.462651 27.0117096 379.46506 30.088993 382.544578 42.3981265 382.544578 42.3981265 390.551325 51.2880562 389.73012 65.4777518z"/>
      <path fill="url(#1@svg-b)" d="M138.270361,72.076815 C138.201928,73.2735363 137.996627,74.4018735 137.551807,75.5644028 C135.498795,81.0351288 102.89012,79.0177986 102.89012,79.0177986 C102.89012,79.0177986 102.89012,79.0177986 102.89012,79.0177986 C102.753253,78.8126464 96.2178313,69.9569087 100.939759,57.1007026 C105.73012,44.1077283 107.783133,42.3981265 116.679518,42.7400468 C125.575904,43.0819672 133.445783,46.1592506 135.156627,55.3911007 C136.525301,62.6740047 138.50988,67.6318501 138.270361,72.076815 Z"/>
      <path fill="url(#1@svg-c)" d="M389.73012,65.4777518 C389.661687,66.5377049 389.559036,67.6318501 389.387952,68.7259953 C386.992771,84.7962529 363.725301,78.6416862 363.725301,78.6416862 L348.327711,65.6487119 C348.327711,65.6487119 347.369639,62.9133489 347.266988,58.7761124 C347.164337,54.741452 347.882892,49.3391101 351.06506,43.765808 C357.566265,32.4824356 358.93494,35.2177986 362.698795,31.1147541 C366.462651,27.0117096 379.46506,30.088993 382.544578,42.3981265 C382.544578,42.3981265 390.551325,51.2880562 389.73012,65.4777518 Z"/>
      <path fill="#654EAE" d="M87.5951807,94.7119438 C85.8159036,100.045902 79.7937349,112.696956 79.5884337,120.355972 C79.5884337,120.6637 79.5884337,120.971429 79.5884337,121.279157 C79.6226506,122.099766 79.7253012,122.851991 79.9648193,123.535831 C80.1359036,124.048712 79.9990361,124.5274 79.6568675,124.937705 C78.9383133,125.792506 77.2616867,126.407963 74.9691566,126.886651 C72.300241,127.433724 68.8443373,127.809836 65.0462651,128.014988 C59.7426506,128.322717 53.8573494,128.322717 48.8616867,128.254333 C46.226988,128.220141 43.8660241,128.151756 41.9498795,128.083372 C41.2313253,128.04918 40.546988,128.04918 39.9653012,128.014988 C38.2544578,127.946604 37.2621687,127.87822 37.2621687,127.87822 C37.2621687,127.87822 37.3990361,125.68993 37.1253012,122.749415 C36.8173494,119.227635 35.9277108,114.61171 33.4983133,111.466042 C30.6925301,107.807494 27.0655422,105.89274 25.5257831,102.234192 C24.6361446,100.114286 24.4650602,97.3789227 25.6284337,93.3442623 C28.7079518,82.4028103 23.233253,64.6229508 34.866988,55.3911007 C46.5007229,46.1592506 54.3706024,36.9274005 64.293494,46.8430913 C64.293494,46.8430913 73.8742169,43.765808 79.3489157,62.5714286 C84.8236145,81.3770492 89.6481928,88.557377 87.5951807,94.7119438 Z"/>
      <path fill="url(#1@svg-d)" d="M87.5951807,94.7119438 C85.8159036,100.045902 79.7937349,112.696956 79.5884337,120.355972 C79.5884337,120.6637 79.5884337,120.971429 79.5884337,121.279157 C79.6226506,122.099766 79.7253012,122.851991 79.9648193,123.535831 C80.1359036,124.048712 79.9990361,124.5274 79.6568675,124.937705 C78.9383133,125.792506 77.2616867,126.407963 74.9691566,126.886651 C72.300241,127.433724 68.8443373,127.809836 65.0462651,128.014988 C59.7426506,128.322717 53.8573494,128.322717 48.8616867,128.254333 C46.226988,128.220141 43.8660241,128.151756 41.9498795,128.083372 C41.2313253,128.04918 40.546988,128.04918 39.9653012,128.014988 C38.2544578,127.946604 37.2621687,127.87822 37.2621687,127.87822 C37.2621687,127.87822 37.3990361,125.68993 37.1253012,122.749415 C36.8173494,119.227635 35.9277108,114.61171 33.4983133,111.466042 C30.6925301,107.807494 27.0655422,105.89274 25.5257831,102.234192 C24.6361446,100.114286 24.4650602,97.3789227 25.6284337,93.3442623 C28.7079518,82.4028103 23.233253,64.6229508 34.866988,55.3911007 C46.5007229,46.1592506 54.3706024,36.9274005 64.293494,46.8430913 C64.293494,46.8430913 73.8742169,43.765808 79.3489157,62.5714286 C84.8236145,81.3770492 89.6481928,88.557377 87.5951807,94.7119438 Z"/>
      <path fill="url(#1@svg-e)" d="M49.9566265,121.723653 L47.5956627,123.604215 L41.9498795,128.083372 C41.2313253,128.04918 40.546988,128.04918 39.9653012,128.014988 C38.2544578,127.946604 37.2621687,127.87822 37.2621687,127.87822 C37.2621687,127.87822 37.3990361,125.68993 37.1253012,122.749415 C36.8173494,119.227635 35.9277108,114.61171 33.4983133,111.466042 C30.6925301,107.807494 27.0655422,105.89274 25.5257831,102.234192 C26.9286747,98.4388759 29.1185542,94.8145199 31.4453012,92.6604215 C36.2698795,88.1812646 37.4674699,81.5822014 37.6043373,80.7615925 L37.6043373,80.6932084 C37.6043373,80.6932084 37.6043373,80.6590164 37.6043373,80.6590164 L45.1320482,91.258548 L47.8351807,108.354567 L48.1089157,110.200937 L48.8959036,115.090398 L49.9566265,121.723653 Z"/>
      <path fill="#77D2FF" d="M199.826506 73.5128806L196.473253 73.7864169 158.081928 76.9320843C158.081928 76.9320843 157.226506 75.5644028 156.2 73.4103044 154.55759 69.9227166 152.504578 64.2810304 152.949398 58.8103044 153.633735 49.9203747 152.607229 45.8173302 158.081928 43.4238876 158.081928 43.4238876 158.116145 43.3213115 158.150361 43.1845433 158.629398 41.5433255 161.88 32.5850117 176.216867 36.9274005 191.956627 41.7142857 196.404819 44.7915691 198.457831 57.1007026 199.039518 60.6224824 199.415904 63.4604215 199.621205 65.717096 200.168675 71.4271663 199.826506 73.5128806 199.826506 73.5128806zM155.276145 291.213583C153.257349 291.111007 151.272771 290.974239 149.288193 290.837471 139.775904 290.15363 130.332048 289.093677 121.059277 287.725995 116.816386 287.110539 112.607711 286.392506 108.433253 285.640281 102.719036 284.61452 97.1074699 283.417799 91.5643373 282.118501L87.1845783 224.470726 85.4395181 201.425293 84.1050602 184.021546 84.0708434 183.679625 82.5310843 163.403747 79.6226506 124.937705 79.3831325 121.381733C79.3831325 121.381733 79.4515663 121.347541 79.5884337 121.279157 79.7937349 121.176581 80.1016867 121.039813 80.5122892 120.83466 83.9681928 119.227635 94.3359036 114.338173 97.1759036 111.77377 97.346988 111.60281 97.5180723 111.43185 97.6891566 111.26089 100.700241 108.012646 102.034699 102.097424 109.493976 100.148478 109.596627 100.114286 109.66506 100.114286 109.767711 100.080094 114.79759 98.8491803 122.66747 99.1911007 127.834217 99.6355972 130.845301 99.8749415 132.93253 100.148478 132.93253 100.148478 132.93253 100.148478 132.93253 100.148478 132.93253 100.148478 133.137831 100.251054 141.520964 104.764403 147.269398 109.41452 147.68 109.75644 148.090602 110.064169 148.466988 110.406089 151.033253 112.662763 152.81253 114.851054 152.607229 116.526464 152.26506 119.261827 152.949398 163.643091 153.702169 207.408899 153.873253 216.606557 154.044337 225.770023 154.181205 234.488993 154.249639 238.181733 154.318072 241.771897 154.386506 245.293677 154.420723 246.627166 154.420723 247.994848 154.45494 249.294145 154.489157 250.661827 154.489157 251.995316 154.523373 253.328806 154.899759 271.074473 155.173494 285.161593 155.276145 291.213583z"/>
      <path fill="url(#1@svg-f)" d="M155.276145,291.213583 C153.257349,291.111007 151.272771,290.974239 149.288193,290.837471 C139.775904,290.15363 130.332048,289.093677 121.059277,287.725995 C116.816386,287.110539 112.607711,286.392506 108.433253,285.640281 C102.719036,284.61452 97.1074699,283.417799 91.5643373,282.118501 L87.1845783,224.470726 L85.4395181,201.425293 L84.1050602,184.021546 L84.0708434,183.679625 L82.5310843,163.403747 L79.6226506,124.937705 L79.3831325,121.381733 C79.3831325,121.381733 79.4515663,121.347541 79.5884337,121.279157 C79.7937349,121.176581 80.1016867,121.039813 80.5122892,120.83466 C83.9681928,119.227635 94.3359036,114.338173 97.1759036,111.77377 C97.346988,111.60281 97.5180723,111.43185 97.6891566,111.26089 C96.7653012,115.29555 96.1836145,119.877283 96.5257831,124.390632 C96.6626506,126.237002 96.9706024,128.117564 97.4838554,129.89555 C98.0655422,131.947073 98.6814458,134.443091 99.2973494,137.212646 C103.129639,154.069321 107.92,181.764871 113.223614,185.286651 C114.044819,185.833724 115.379277,185.320843 117.021687,183.91897 C117.63759,183.406089 118.253494,182.790632 118.937831,182.0726 C124.001928,176.738642 131.084819,165.694614 136.97012,152.8726 C143.09494,139.503513 147.919518,124.219672 147.748434,111.43185 L148.398554,110.440281 C150.964819,112.696956 152.744096,114.885246 152.538795,116.560656 C152.196627,119.296019 152.880964,163.677283 153.633735,207.443091 C153.804819,216.640749 153.975904,225.804215 154.112771,234.523185 C154.181205,238.215925 154.249639,241.806089 154.318072,245.327869 C154.352289,246.661358 154.352289,248.02904 154.386506,249.328337 C154.420723,250.696019 154.420723,252.029508 154.45494,253.362998 C154.899759,271.074473 155.173494,285.161593 155.276145,291.213583 Z"/>
      <path fill="#FFCDA8" d="M136.97012,116.560656 C137.243855,119.432787 137.380723,121.552693 137.380723,121.552693 L132.556145,132.630913 L129.44241,139.742857 L125.746988,148.222482 C125.746988,148.222482 124.720482,147.880562 123.180723,147.162529 C122.12,146.649649 120.785542,145.931616 119.416867,144.974239 C117.09012,143.401405 114.592289,141.144731 112.676145,138.101639 C111.341687,135.981733 110.315181,133.485714 109.870361,130.545199 C109.870361,130.545199 109.870361,130.545199 109.870361,130.545199 C109.767711,129.963934 109.699277,129.38267 109.66506,128.767213 C109.66506,128.767213 104.190361,121.586885 103.506024,117.825761 C102.821687,114.064637 106.585542,103.123185 106.585542,103.123185 L109.493976,100.216862 L109.66506,100.045902 C109.66506,100.045902 104.53253,91.8398126 103.506024,83.975644 C103.300723,82.4711944 103.095422,80.7957845 102.89012,79.0519906 C102.89012,79.0519906 102.89012,79.0519906 102.89012,79.0519906 C102.068916,71.7690867 101.69253,63.2210773 105.559036,59.357377 C110.349398,54.5704918 118.903614,58.6735363 123.009639,57.9896956 C127.115663,57.3058548 133.959036,59.357377 136.012048,73.034192 C136.012048,73.034192 137.312289,71.5639344 138.270361,72.111007 C138.61253,72.3161593 138.920482,72.7948478 139.091566,73.7180328 C139.775904,77.1372365 138.407229,82.9498829 135.327711,84.3175644 C135.327711,84.3175644 135.327711,91.8398126 131.563855,96.2847775 C131.563855,96.2847775 131.563855,96.3189696 131.563855,96.3873536 C131.598072,96.7976581 131.769157,98.2679157 132.898313,100.216862 C132.898313,100.216862 132.898313,100.216862 132.898313,100.216862 C133.172048,100.69555 133.514217,101.208431 133.924819,101.755504 C135.498795,103.70445 136.491084,111.363466 136.97012,116.560656 Z"/>
      <path fill="url(#1@svg-g)" d="M137.380723,121.552693 L132.556145,132.630913 L129.44241,139.742857 L123.180723,147.162529 C122.12,146.649649 120.785542,145.931616 119.416867,144.974239 C117.09012,143.401405 114.592289,141.144731 112.676145,138.101639 C111.341687,135.981733 110.315181,133.485714 109.870361,130.545199 C109.870361,130.545199 109.870361,130.545199 109.870361,130.545199 C109.767711,129.963934 109.699277,129.38267 109.66506,128.767213 C109.66506,128.767213 104.190361,121.586885 103.506024,117.825761 C102.821687,114.064637 106.585542,103.123185 106.585542,103.123185 L109.493976,100.216862 L109.66506,100.045902 C109.699277,100.080094 109.733494,100.114286 109.767711,100.148478 C111.889157,101.994848 115.481928,103.943794 120.785542,102.952225 C123.351807,102.473536 125.712771,101.242623 127.834217,99.7039813 C129.202892,98.6782201 130.468916,97.5498829 131.598072,96.4215457 C131.632289,96.8318501 131.803373,98.3021077 132.93253,100.251054 C132.93253,100.251054 132.93253,100.251054 132.93253,100.251054 C133.206265,100.729742 133.548434,101.242623 133.959036,101.789696 C135.498795,103.772834 136.491084,111.43185 136.97012,116.62904 C137.243855,119.432787 137.380723,121.552693 137.380723,121.552693 Z"/>
      <path fill="#040242" d="M119.656386,200.638876 C119.656386,200.673068 119.656386,200.673068 119.656386,200.638876 C119.416867,206.622482 118.527229,211.238407 116.679518,213.358314 C116.679518,213.358314 110.452048,219.547073 104.156145,221.359251 C104.156145,221.359251 104.156145,221.359251 104.121928,221.359251 C103.574458,221.530211 103.026988,221.632787 102.479518,221.735363 C102.479518,221.735363 110.007229,258.320843 109.322892,267.552693 C109.01494,271.929274 108.672771,279.177986 108.433253,285.606089 C102.719036,284.580328 97.1074699,283.383607 91.5643373,282.084309 C80.9913253,279.58829 70.6920482,276.647775 60.8718072,273.262763 C60.0506024,272.989227 59.2293976,272.681499 58.4081928,272.407963 C40.8549398,266.15082 24.7045783,258.457611 10.5387952,249.362529 C11.6337349,240.64356 13.4814458,228.300234 16.4583133,216.093677 C16.4583133,216.093677 14.6448193,215.64918 12.2154217,214.486651 C12.2154217,214.486651 12.2154217,214.486651 12.1812048,214.486651 C7.56192771,212.264169 0.821204819,207.408899 0.376385542,197.971897 C-0.171084337,186.414988 -0.0684337349,153.351288 3.38746988,138.580328 C4.2086747,134.990164 5.26939759,132.494145 6.53542169,131.639344 C7.49349398,130.989696 8.65686747,130.511007 10.0255422,130.169087 C13.4814458,129.245902 18.0322892,128.972365 22.7884337,128.185948 C27.8183133,127.399532 33.053494,126.03185 37.2279518,122.749415 C37.8438554,122.270726 38.4255422,121.757845 38.973012,121.176581 C39.3493976,120.800468 39.7257831,120.390164 40.0679518,119.979859 C41.3681928,118.47541 42.9763855,117.312881 44.7898795,116.45808 C46.0901205,115.842623 47.493012,115.398126 48.9643373,115.090398 C56.1840964,113.483372 64.9778313,114.919438 70.4525301,116.184543 C73.6004819,116.902576 75.6192771,117.552225 75.6192771,117.552225 C75.6192771,117.552225 77.0221687,118.851522 79.6568675,120.32178 C79.9648193,120.49274 80.2727711,120.6637 80.5807229,120.800468 C83.2496386,122.133958 86.9108434,123.501639 91.4616867,123.946136 C91.906506,123.980328 92.3171084,124.01452 92.7619277,124.048712 C94.0963855,124.117096 95.3624096,124.219672 96.5942169,124.35644 C101.14506,124.800937 104.772048,125.621546 107.509398,127.844028 C108.399036,128.562061 109.220241,129.416862 109.904578,130.476815 C109.904578,130.476815 109.904578,130.476815 109.904578,130.476815 C111.170602,132.357377 112.094458,134.819204 112.710361,138.033255 C113.668434,143.093677 115.960964,155.744731 117.63759,169.284778 C118.18506,173.52459 118.664096,177.832787 119.006265,182.038407 C119.587952,188.842623 119.861687,195.304918 119.656386,200.638876 Z"/>
      <path fill="#77D2FF" d="M42.4289157,111.807963 C42.4289157,111.807963 38.3228916,115.569087 39.0072289,123.091335 C39.6915663,130.613583 44.8240964,138.477752 45.1662651,141.555035 C45.5084337,144.632319 54.4048193,185.320843 54.4048193,185.320843 L61.5903614,185.320843 C61.5903614,185.320843 69.460241,147.367681 71.513253,139.845433 C73.5662651,132.323185 79.2462651,117.312881 72.4713253,110.782201 C65.6963855,104.285714 42.4289157,111.807963 42.4289157,111.807963 Z"/>
      <path fill="#654EAE" d="M423.639036,135.195316 C422.578313,136.084309 421.483373,136.699766 421.346506,136.76815 C421.346506,136.76815 421.346506,136.76815 421.346506,136.76815 C421.312289,137.212646 419.498795,174.037471 419.156627,175.063232 C418.951325,175.644496 419.533012,185.423419 420.525301,196.535831 C414.468916,202.416862 408.207229,208.09274 401.706024,213.563466 C384.392289,228.163466 365.641446,241.224824 346.137831,251.961124 C342.305542,254.08103 338.473253,256.098361 334.57253,258.013115 C332.211566,259.175644 329.816386,260.338173 327.421205,261.432319 C326.805301,257.192506 326.223614,251.482436 325.676145,244.780796 C324.615422,232.369087 323.657349,216.606557 322.836145,200.502108 C322.528193,194.621077 322.254458,188.671663 321.980723,182.859016 C320.577831,151.470726 319.756627,123.262295 319.893494,121.723653 C320.030361,120.185012 321.433253,119.466979 323.486265,118.714754 C325.94988,117.791569 329.371566,116.834192 332.553735,114.201405 C334.675181,112.457611 338.61012,110.132553 342.750361,107.875878 C350.004337,103.909602 357.874217,100.18267 357.874217,100.18267 C357.874217,100.18267 367.626024,97.5840749 377.617349,98.4046838 C377.891084,98.4388759 378.130602,98.4388759 378.404337,98.4730679 C380.423133,98.6782201 382.407711,99.0885246 384.323855,99.6355972 C391.612048,101.721311 397.668434,105.687588 398.489639,106.268852 C398.558072,106.303044 398.592289,106.337237 398.592289,106.337237 C426.992289,114.543326 424.939277,129.245902 425.623614,131.639344 C426,132.870258 424.870843,134.203747 423.639036,135.195316 Z"/>
      <path fill="url(#1@svg-h)" d="M423.639036,135.195316 C422.578313,136.084309 421.483373,136.699766 421.346506,136.76815 C421.346506,136.76815 421.346506,136.76815 421.346506,136.76815 C421.312289,137.212646 419.498795,174.037471 419.156627,175.063232 C418.951325,175.644496 419.533012,185.423419 420.525301,196.535831 C414.468916,202.416862 408.207229,208.09274 401.706024,213.563466 C384.392289,228.163466 365.641446,241.224824 346.137831,251.961124 C342.305542,254.08103 338.473253,256.098361 334.57253,258.013115 C332.211566,259.175644 329.816386,260.338173 327.421205,261.432319 C326.805301,257.192506 326.223614,251.482436 325.676145,244.780796 C324.615422,232.369087 323.657349,216.606557 322.836145,200.502108 C322.528193,194.621077 322.254458,188.671663 321.980723,182.859016 C320.577831,151.470726 319.756627,123.262295 319.893494,121.723653 C320.030361,120.185012 321.433253,119.466979 323.486265,118.714754 C325.94988,117.791569 329.371566,116.834192 332.553735,114.201405 C334.675181,112.457611 338.61012,110.132553 342.750361,107.875878 C344.016386,111.43185 345.590361,116.184543 347.266988,122.065574 C351.373012,136.42623 353.768193,157.967213 361.980241,158.992974 C370.192289,160.018735 377.035663,147.025761 386.616386,138.477752 C393.391325,132.425761 395.375904,116.834192 398.489639,106.268852 C398.558072,106.303044 398.592289,106.337237 398.592289,106.337237 C426.992289,114.543326 424.939277,129.245902 425.623614,131.639344 C426,132.870258 424.870843,134.203747 423.639036,135.195316 Z"/>
      <path fill="#FFCDA8" d="M385.624096,81.0351288 C385.624096,81.0351288 385.110843,85.6510539 383.742169,88.0444965 C383.742169,88.0444965 383.707952,88.3522248 383.707952,88.8309133 C383.605301,90.9850117 383.468434,96.7976581 384.358072,99.6355972 C384.563373,100.285246 384.802892,100.763934 385.110843,101.037471 C385.110843,101.037471 386.137349,107.875878 383.4,113.004684 C380.662651,118.133489 378.951807,129.758782 377.925301,133.519906 C376.898795,137.28103 367.831325,141.213115 367.831325,141.213115 C367.831325,141.213115 360.987952,137.11007 357.224096,131.639344 C357.224096,131.639344 356.231807,106.474005 357.84,100.456206 L357.908434,100.18267 C357.908434,100.18267 349.354217,87.5316159 348.66988,81.0351288 C348.22506,76.8295082 345.795663,66.9138173 347.266988,58.7761124 C348.053976,54.3311475 350.038554,50.3990632 354.144578,48.2107728 C365.778313,42.0562061 379.122892,48.8946136 381.518072,60.1779859 C383.913253,71.4613583 383.913253,70.0936768 385.966265,67.7002342 C387.198072,66.2641686 388.669398,65.3409836 389.73012,65.4777518 C390.448675,65.5803279 390.961928,66.1274005 391.098795,67.3583138 C391.440964,70.4355972 390.414458,80.6932084 385.624096,81.0351288 Z"/>
      <path fill="#040242" d="M217.277108,120.355972 C217.277108,120.355972 214.64241,197.18548 203.111325,234.557377 C200.168675,244.131148 196.644337,251.106323 192.401446,253.56815 C191.717108,253.978454 190.964337,254.251991 190.245783,254.388759 C189.972048,254.422951 189.73253,254.491335 189.458795,254.559719 C189.18506,254.628103 188.945542,254.662295 188.671807,254.730679 C188.671807,254.730679 188.671807,254.730679 188.671807,254.730679 C184.565783,255.58548 181.10988,256.577049 178.201446,257.500234 C165.986024,261.466511 162.97494,265.193443 160.819277,260.885246 C160.203373,259.654333 158.834699,257.944731 156.918554,255.893208 C156.2,255.106792 155.413012,254.286183 154.55759,253.39719 C152.26506,251.072131 149.561928,248.439344 146.721928,245.772365 C141.007711,240.335831 134.814458,234.557377 130.708434,230.112412 C126.123373,225.188759 122.188434,212.708665 119.656386,200.673068 C119.656386,200.673068 119.656386,200.673068 119.656386,200.673068 C118.390361,194.655269 117.500723,188.774239 117.055904,183.953162 C116.645301,179.679157 116.611084,176.259953 117.021687,174.379391 C117.261205,173.18267 117.466506,171.438876 117.603373,169.353162 C118.08241,163.198595 118.321928,153.761593 119.416867,144.974239 C120.511807,136.084309 122.427952,127.809836 126.260241,124.117096 C126.841928,123.535831 127.526265,122.954567 128.279036,122.373302 C130.674217,120.458548 133.719518,118.47541 137.004337,116.560656 C140.733976,114.372365 144.805783,112.286651 148.466988,110.440281 C148.466988,110.440281 148.466988,110.440281 148.466988,110.440281 C155.447229,107.021077 161.161446,104.627635 161.161446,104.627635 L161.366747,104.422482 L165.643855,99.9091335 L167.320482,98.1653396 C167.320482,98.1653396 167.491566,98.1311475 167.799518,98.0285714 C170.742169,97.2763466 186.721446,93.4468384 192.983133,95.3274005 C193.359518,95.4299766 193.701687,95.5667447 194.009639,95.7377049 C194.625542,96.0796253 195.241446,96.4557377 195.788916,96.8660422 C199.963373,99.9433255 202.358554,104.832787 202.83759,105.824356 C202.871807,105.926932 202.906024,105.995316 202.906024,105.995316 C233.701205,111.807963 217.277108,120.355972 217.277108,120.355972 Z"/>
      <path fill="url(#1@svg-i)" d="M217.277108,120.355972 C217.277108,120.355972 214.64241,197.18548 203.111325,234.557377 C200.168675,244.131148 196.644337,251.106323 192.401446,253.56815 C188.124337,251.345667 184.018313,249.020609 180.357108,246.558782 C177.380241,244.575644 174.711325,242.524122 172.487229,240.404215 C170.434217,238.489461 168.75759,236.540515 167.491566,234.557377 C166.636145,233.189696 165.986024,231.822014 165.609639,230.454333 C162.256386,219.034192 157.94506,213.016393 153.702169,207.477283 C149.733012,202.21171 145.832289,197.390632 143.026506,188.740047 C140.186506,180.021077 139.125783,166.48103 137.038554,152.906792 C135.943614,145.931616 134.609157,138.95644 132.556145,132.630913 C131.392771,128.938173 129.98988,125.484778 128.279036,122.373302 C130.674217,120.458548 133.719518,118.47541 137.004337,116.560656 C140.733976,114.372365 144.805783,112.286651 148.466988,110.440281 C148.466988,110.440281 148.466988,110.440281 148.466988,110.440281 C155.447229,107.021077 161.161446,104.627635 161.161446,104.627635 L161.366747,104.422482 C162.290602,107.978454 164.104096,112.696956 167.799518,117.552225 C169.476145,119.774707 172.760964,119.911475 174.608675,117.859953 C176.593253,115.705855 178.954217,112.867916 180.322892,110.098361 C180.322892,110.098361 185.79759,113.859485 188.877108,117.620609 C191.032771,120.287588 199.860723,115.12459 202.83759,105.824356 C202.871807,105.926932 202.906024,105.995316 202.906024,105.995316 C233.701205,111.807963 217.277108,120.355972 217.277108,120.355972 Z"/>
      <path fill="#FFCDA8" d="M73.2583133 103.567681C72.9161446 103.943794 72.7108434 104.114754 72.7108434 104.114754 73.3951807 114.030445 70.3156627 115.740047 66.8939759 121.894614 63.4722892 128.04918 65.5253012 136.255269 65.5253012 136.255269 57.6554217 147.196721 55.9445783 157.112412 55.9445783 157.112412 55.9445783 157.112412 51.1542169 147.538642 48.7590361 143.435597 46.3638554 139.332553 49.1012048 136.255269 49.1012048 130.442623 49.1012048 124.629977 42.6 111.978923 42.6 111.978923 43.5238554 107.431382 42.2578313 103.70445 41.9840964 102.918033 41.9498795 102.815457 41.9156627 102.747073 41.9156627 102.747073 38.1518072 97.2763466 38.4939759 93.8571429 38.4939759 93.8571429 35.4144578 93.8571429 35.0722892 88.0444965 35.0722892 88.0444965 39.8626506 79.8384075 35.4144578 78.470726 42.2578313 64.4519906 49.1012048 50.4332553 62.4457831 56.9297424 62.4457831 56.9297424 75.1060241 56.9297424 76.4746988 76.7611241 77.5012048 88.0444965 78.3224096 97.1737705 74.6954217 102.063232 73.2583133 103.567681zM82.6337349 202.245902C82.1546988 202.348478 84.3445783 190.278689 82.6337349 183.782201 82.6337349 183.782201 95.9783133 182.41452 99.0578313 187.885246 102.137349 193.355972 90.1614458 200.5363 82.6337349 202.245902zM25.8337349 187.885246C22.0698795 189.594848 16.9373494 188.227166 16.9373494 188.227166 13.173494 185.833724 14.2 182.75644 14.2 182.75644 11.1204819 180.021077 13.5156627 177.285714 13.5156627 177.285714 13.173494 175.234192 14.8843373 174.550351 14.8843373 174.550351 18.3060241 174.550351 25.8337349 187.885246 25.8337349 187.885246z"/>
      <path fill="url(#1@svg-j)" d="M199.826506,73.5128806 L196.473253,73.7864169 C188.124337,70.8117096 178.988434,66.7086651 171.084337,61.2037471 C163.385542,55.8355972 159.69012,49.304918 158.150361,43.1845433 C158.629398,41.5433255 161.88,32.5850117 176.216867,36.9274005 C191.956627,41.7142857 196.404819,44.7915691 198.457831,57.1007026 C199.039518,60.6224824 199.415904,63.4604215 199.621205,65.717096 C200.168675,71.4271663 199.826506,73.5128806 199.826506,73.5128806 Z"/>
      <path fill="#FFCDA8" d="M199.655422,80.1803279 C199.655422,80.1803279 197.60241,89.412178 196.233735,91.4637002 C195.994217,91.8056206 195.857349,92.1133489 195.788916,92.4210773 C195.41253,93.8571429 196.165301,95.1906323 195.788916,96.8660422 C195.720482,97.1053864 195.652048,97.3789227 195.549398,97.618267 C194.522892,100.01171 188.363855,108.559719 180.836145,109.9274 C180.836145,109.9274 167.833735,104.456674 165.780723,100.35363 L165.643855,99.8749415 L164.412048,95.2248244 C164.412048,95.2248244 164.17253,94.882904 163.796145,94.2674473 C163.796145,94.2674473 163.796145,94.2674473 163.796145,94.2674473 C163.453976,93.6861827 163.009157,92.8313817 162.53012,91.8056206 C162.53012,91.8056206 162.53012,91.8056206 162.53012,91.8056206 C161.88,90.369555 161.195663,88.523185 160.648193,86.3690867 C160.648193,86.3690867 157.226506,83.2918033 156.542169,78.504918 C156.2,76.0430913 156.028916,74.4018735 156.2,73.4444965 C156.371084,72.5213115 156.884337,72.1793911 157.910843,72.3503513 C157.910843,72.3503513 154.489157,58.6735363 158.253012,53.5447307 C162.016867,48.4159251 169.886747,51.1512881 173.992771,49.7836066 C178.098795,48.4159251 188.706024,45.6805621 192.127711,53.2028103 C195.549398,60.7250585 195.549398,66.8796253 197.260241,68.2473068 C198.697349,69.375644 198.697349,66.9822014 199.621205,65.7512881 C199.826506,65.4777518 200.031807,65.2725995 200.339759,65.1700234 C202.050602,64.4519906 205.814458,81.206089 199.655422,80.1803279 Z"/>
      <path fill="url(#1@svg-k)" d="M107.475181,127.87822 C103.98506,129.622014 100.392289,132.323185 99.5710843,136.084309 C97.860241,143.948478 97.1759036,171.302108 97.1759036,177.114754 C97.1759036,182.9274 94.4385542,188.740047 94.4385542,188.740047 C94.4385542,188.740047 87.5951807,183.269321 79.3831325,183.611241 C79.3831325,183.611241 75.9614458,183.953162 73.5662651,182.9274 C73.5662651,182.9274 84.5156627,161.044496 86.5686747,152.154567 C88.2795181,144.666511 91.4616867,131.639344 91.4274699,124.01452 C91.8722892,124.048712 92.2828916,124.082904 92.7277108,124.117096 C99.0920482,124.5274 104.019277,125.108665 107.475181,127.87822 Z"/>
      <path fill="url(#1@svg-l)" d="M46.5349398,186.688525 C45.6795181,186.585948 44.5845783,186.551756 43.386988,186.517564 C42.9421687,186.517564 42.4973494,186.517564 42.0183133,186.517564 L41.9840964,186.517564 C39.8284337,186.551756 37.3990361,186.688525 35.106506,186.859485 C30.2819277,187.201405 26.0048193,187.714286 26.0048193,187.714286 C26.0048193,187.714286 25.8679518,187.680094 25.6626506,187.61171 C25.1836145,187.440749 24.2255422,187.030445 23.4043373,186.175644 L23.3701205,186.141452 C23.1648193,185.9363 22.9937349,185.696956 22.8226506,185.457611 C22.7884337,185.389227 22.7542169,185.355035 22.72,185.320843 C22.72,185.320843 22.72,185.286651 22.72,185.286651 C22.1725301,184.397658 21.7961446,183.235129 21.933012,181.628103 L21.933012,181.593911 C22.3093976,176.533489 18.8192771,147.983138 15.739759,140.11897 C14.3710843,136.59719 12.0785542,132.972834 9.9913253,130.100703 C13.4472289,129.177518 17.9980723,128.903981 22.7542169,128.117564 C24.533494,137.315222 26.9971084,149.35082 28.7763855,154.479625 C31.6163855,162.719906 44.5161446,183.337705 46.3638554,186.27822 C46.466506,186.551756 46.5349398,186.688525 46.5349398,186.688525 Z"/>
      <path fill="url(#1@svg-m)" d="M83.2154217,187.680094 C83.2154217,187.714286 83.2154217,191.30445 83.0785542,195.954567 C83.0101205,197.903513 82.9416867,200.057611 82.8390361,202.21171 C82.5653012,207.169555 82.1546988,212.093208 81.4703614,214.725995 C79.7595181,221.222482 64.7040964,214.042155 39.3836145,216.093677 C39.3836145,216.093677 36.4751807,216.093677 33.0877108,216.709133 C31.7190361,216.948478 30.2819277,217.290398 28.913253,217.769087 C28.8790361,217.769087 28.8448193,217.803279 28.8106024,217.803279 C28.8106024,217.803279 28.7763855,217.803279 28.7763855,217.803279 C27.7498795,218.179391 24.773012,218.008431 20.906506,217.15363 C20.906506,217.15363 20.906506,217.15363 20.906506,217.15363 C18.3060241,216.572365 15.3291566,215.717564 12.2496386,214.486651 C12.2496386,214.486651 12.2496386,214.486651 12.2154217,214.486651 C7.59614458,212.264169 0.855421687,207.408899 0.41060241,197.971897 C-0.13686747,186.414988 -0.0342168675,153.351288 3.42168675,138.580328 C3.83228916,137.451991 3.83228916,137.451991 3.83228916,137.451991 C3.83228916,137.451991 18.2375904,168.259016 22.0014458,181.628103 C22.0014458,181.662295 22.0014458,181.662295 22.0014458,181.696487 C22.4120482,183.132553 22.6857831,184.363466 22.7884337,185.355035 C22.7884337,185.355035 22.7884337,185.355035 22.7884337,185.389227 C22.8226506,185.423419 22.8568675,185.491803 22.8910843,185.525995 C22.9937349,185.696956 23.1990361,185.9363 23.4385542,186.209836 L23.4727711,186.244028 C24.020241,186.859485 24.8756627,187.61171 25.7995181,187.748478 C25.9021687,187.78267 25.9706024,187.78267 26.073253,187.78267 C27.099759,187.78267 31.1373494,187.303981 35.1749398,186.927869 C37.7412048,186.688525 40.3074699,186.517564 42.0525301,186.585948 L42.086747,186.585948 C42.5315663,186.585948 42.9763855,186.585948 43.4554217,186.585948 C44.3108434,186.551756 45.3031325,186.483372 46.3638554,186.380796 C49.4775904,186.10726 53.5151807,185.628571 58.6477108,185.423419 C59.0583133,185.389227 59.4689157,185.389227 59.9137349,185.355035 C60.4954217,185.320843 61.1113253,185.286651 61.693012,185.218267 C65.6621687,184.842155 69.5628916,184.021546 73.3609639,182.790632 C73.4978313,182.75644 73.6689157,182.688056 73.8057831,182.653864 C77.0906024,181.662295 80.7860241,181.286183 82.4284337,183.782201 C82.6337349,184.08993 82.8048193,184.43185 82.9416867,184.842155 C83.1127711,185.560187 83.2496386,186.517564 83.2154217,187.680094 Z"/>
      <path fill="url(#1@svg-n)" d="M72.7108434,104.114754 C73.3951807,114.030445 70.3156627,115.740047 66.8939759,121.894614 C63.4722892,128.04918 65.5253012,136.255269 65.5253012,136.255269 C57.6554217,147.196721 55.9445783,157.112412 55.9445783,157.112412 C55.9445783,157.112412 51.1542169,147.538642 48.7590361,143.435597 C46.3638554,139.332553 49.1012048,136.255269 49.1012048,130.442623 C49.1012048,124.629977 42.6,111.978923 42.6,111.978923 C43.5238554,107.431382 42.2578313,103.70445 41.9840964,102.918033 C43.1474699,104.525059 48.7248193,111.43185 57.4843373,111.124122 C64.1908434,110.884778 70.1103614,106.439813 73.2583133,103.567681 C72.9161446,103.943794 72.7108434,104.114754 72.7108434,104.114754 Z"/>
      <path fill="url(#1@svg-o)" d="M195.788916,96.8660422 C195.720482,97.1053864 195.652048,97.3789227 195.549398,97.618267 C194.522892,100.01171 188.363855,108.559719 180.836145,109.9274 C180.836145,109.9274 167.833735,104.456674 165.780723,100.35363 L165.643855,99.8749415 L164.412048,95.2248244 C164.412048,95.2248244 164.17253,94.882904 163.796145,94.2674473 C164.583133,95.3957845 165.849157,96.763466 167.765301,98.0285714 C170.502651,99.8065574 174.574458,101.311007 180.630843,101.584543 C184.634217,101.755504 188.877108,99.2252927 192.948916,95.3615925 C193.906988,94.4725995 194.830843,93.4810304 195.754699,92.4552693 C195.41253,93.8571429 196.165301,95.2248244 195.788916,96.8660422 Z"/>
      <path fill="url(#1@svg-p)" d="M383.4,113.004684 C380.662651,118.133489 378.951807,129.758782 377.925301,133.519906 C376.898795,137.28103 367.831325,141.213115 367.831325,141.213115 C367.831325,141.213115 360.987952,137.11007 357.224096,131.639344 C357.224096,131.639344 356.231807,106.474005 357.84,100.456206 L357.908434,100.18267 C357.908434,100.18267 363.725301,106.679157 370.568675,104.627635 C372.861205,103.943794 375.359036,101.413583 377.651566,98.4046838 C380.01253,95.2932084 382.168193,91.6346604 383.673735,88.8651054 C383.571084,91.0192037 383.434217,96.8318501 384.323855,99.6697892 C384.529157,100.319438 384.768675,100.798126 385.076627,101.071663 C385.110843,101.037471 386.137349,107.875878 383.4,113.004684 Z"/>
      <path fill="url(#1@svg-q)" d="M82.6337349,202.245902 C82.1546988,202.348478 84.3445783,190.278689 82.6337349,183.782201 C82.6337349,183.782201 95.9783133,182.41452 99.0578313,187.885246 C102.137349,193.355972 90.1614458,200.5363 82.6337349,202.245902 Z"/>
      <path fill="url(#1@svg-r)" d="M25.8337349,187.885246 C22.0698795,189.594848 16.9373494,188.227166 16.9373494,188.227166 C13.173494,185.833724 14.2,182.75644 14.2,182.75644 C11.1204819,180.021077 13.5156627,177.285714 13.5156627,177.285714 C13.173494,175.234192 14.8843373,174.550351 14.8843373,174.550351 C18.3060241,174.550351 25.8337349,187.885246 25.8337349,187.885246 Z"/>
      <path fill="url(#1@svg-s)" d="M217.277108,120.355972 C217.277108,120.355972 214.64241,197.18548 203.111325,234.557377 L205.301205,234.557377 L211.118072,270.971897 L211.665542,274.459485 L212.45253,279.348946 L214.19759,290.32459 C213.615904,290.358782 213,290.427166 212.418313,290.461358 C211.973494,290.49555 211.528675,290.529742 211.118072,290.563934 C210.399518,290.632319 209.680964,290.666511 208.996627,290.734895 C207.833253,290.837471 206.704096,290.905855 205.540723,290.974239 C205.061687,291.008431 204.582651,291.042623 204.137831,291.076815 C203.38506,291.111007 202.598072,291.179391 201.845301,291.213583 C201.024096,291.247775 200.202892,291.316159 199.381687,291.350351 C198.628916,291.384543 197.876145,291.418735 197.15759,291.452927 C196.267952,291.487119 195.344096,291.521311 194.454458,291.555504 C181.349398,292.068384 168.244337,291.931616 155.310361,291.179391 C153.291566,291.076815 151.306988,290.940047 149.32241,290.803279 C139.81012,290.119438 130.366265,289.059485 121.093494,287.691803 C116.850602,287.076347 112.641928,286.358314 108.46747,285.606089 C102.753253,284.580328 97.1416867,283.383607 91.5985542,282.084309 C81.0255422,279.58829 70.7262651,276.647775 60.9060241,273.262763 C60.0848193,272.989227 59.2636145,272.681499 58.4424096,272.407963 C40.8891566,266.15082 24.7387952,258.457611 10.573012,249.362529 C11.6679518,240.64356 13.5156627,228.300234 16.4925301,216.093677 C16.4925301,216.093677 14.6790361,215.64918 12.2496386,214.486651 C12.2496386,214.486651 12.2496386,214.486651 12.2154217,214.486651 C7.59614458,212.264169 0.855421687,207.408899 0.41060241,197.971897 C-0.13686747,186.414988 -0.0342168675,153.351288 3.42168675,138.580328 C4.24289157,134.990164 5.30361446,132.494145 6.56963855,131.639344 C7.52771084,130.989696 8.69108434,130.511007 10.059759,130.169087 C13.5156627,129.245902 18.066506,128.972365 22.8226506,128.185948 C27.8525301,127.399532 33.0877108,126.03185 37.2621687,122.749415 C36.9542169,119.227635 36.0645783,114.61171 33.6351807,111.466042 C30.8293976,107.807494 27.2024096,105.89274 25.6626506,102.234192 C24.773012,100.114286 24.6019277,97.3789227 25.7653012,93.3442623 C28.8448193,82.4028103 23.3701205,64.6229508 35.0038554,55.3911007 C46.6375904,46.1592506 54.5074699,36.9274005 64.4303614,46.8430913 C64.4303614,46.8430913 74.0110843,43.765808 79.4857831,62.5714286 C84.9604819,81.3770492 89.7508434,88.557377 87.6978313,94.7119438 C85.9185542,100.045902 79.8963855,112.696956 79.6910843,120.355972 C79.9990361,120.526932 80.306988,120.697892 80.6149398,120.83466 C84.0708434,119.227635 94.4385542,114.338173 97.2785542,111.77377 C97.4496386,111.60281 97.6207229,111.43185 97.7918072,111.26089 C100.802892,108.012646 102.137349,102.097424 109.596627,100.148478 L109.767711,99.9775176 C109.767711,99.9775176 104.635181,91.7714286 103.608675,83.90726 C103.403373,82.4028103 103.198072,80.7274005 102.992771,78.9836066 C102.992771,78.9836066 102.992771,78.9836066 102.992771,78.9836066 C102.855904,78.7784543 96.3204819,69.9227166 101.04241,57.0665105 C105.832771,44.0735363 107.885783,42.3639344 116.782169,42.7058548 C125.678554,43.0477752 133.548434,46.1250585 135.259277,55.3569087 C136.627952,62.6398126 138.61253,67.5976581 138.373012,72.042623 C138.715181,72.2477752 139.023133,72.7264637 139.194217,73.6496487 C139.878554,77.0688525 138.50988,82.8814988 135.430361,84.2491803 C135.430361,84.2491803 135.430361,91.7714286 131.666506,96.2163934 C131.666506,96.2163934 131.666506,96.2505855 131.666506,96.3189696 C131.700723,96.729274 131.871807,98.1995316 133.000964,100.148478 C133.000964,100.148478 133.000964,100.148478 133.000964,100.148478 C133.206265,100.251054 141.589398,104.764403 147.337831,109.41452 C147.748434,109.75644 148.159036,110.064169 148.535422,110.406089 C155.447229,107.021077 161.161446,104.627635 161.161446,104.627635 L161.366747,104.422482 L165.643855,99.9091335 L164.412048,95.2590164 C164.412048,95.2590164 164.17253,94.917096 163.796145,94.3016393 C163.796145,94.3016393 163.796145,94.3016393 163.796145,94.3016393 C163.453976,93.7203747 163.009157,92.8655738 162.53012,91.8398126 C162.53012,91.8398126 162.53012,91.8398126 162.53012,91.8398126 C161.88,90.4037471 161.195663,88.557377 160.648193,86.4032787 C160.648193,86.4032787 157.226506,83.3259953 156.542169,78.5391101 C156.2,76.0772834 156.028916,74.4360656 156.2,73.4786885 C154.55759,69.9911007 152.504578,64.3494145 152.949398,58.8786885 C153.633735,49.9887588 152.607229,45.8857143 158.081928,43.4922717 C158.081928,43.4922717 160.477108,32.2088993 176.216867,36.9957845 C191.956627,41.7826698 196.404819,44.8599532 198.457831,57.1690867 C199.039518,60.6908665 199.415904,63.5288056 199.621205,65.7854801 C199.826506,65.5119438 200.031807,65.3067916 200.339759,65.2042155 C202.050602,64.5203747 205.814458,81.2744731 199.655422,80.2487119 C199.655422,80.2487119 197.60241,89.4805621 196.233735,91.5320843 C195.994217,91.8740047 195.857349,92.181733 195.788916,92.4894614 C195.41253,93.9255269 196.165301,95.2590164 195.788916,96.9344262 C199.963373,100.01171 202.358554,104.901171 202.83759,105.89274 C202.871807,105.995316 202.906024,106.0637 202.906024,106.0637 C233.701205,111.807963 217.277108,120.355972 217.277108,120.355972 Z" opacity=".4"/>
      <path fill="url(#1@svg-t)" d="M423.639036,135.195316 C423.946988,134.990164 424.118072,134.887588 424.118072,134.887588 C424.118072,134.887588 422.06506,148.564403 422.407229,152.325527 C422.715181,155.813115 423.639036,183.508665 423.228434,193.903044 C422.338795,194.792037 421.449157,195.68103 420.525301,196.535831 C414.468916,202.416862 408.207229,208.09274 401.706024,213.563466 C384.392289,228.163466 365.641446,241.224824 346.137831,251.961124 C342.305542,254.08103 338.473253,256.098361 334.57253,258.013115 C332.211566,259.175644 329.816386,260.338173 327.421205,261.432319 C326.805301,257.192506 326.223614,251.482436 325.676145,244.780796 C324.615422,232.369087 323.657349,216.606557 322.836145,200.502108 C322.528193,194.621077 322.254458,188.671663 321.980723,182.859016 C320.577831,151.470726 319.756627,123.262295 319.893494,121.723653 C320.030361,120.185012 321.433253,119.466979 323.486265,118.714754 C325.94988,117.791569 329.371566,116.834192 332.553735,114.201405 C334.675181,112.457611 338.61012,110.132553 342.750361,107.875878 C350.004337,103.909602 357.874217,100.18267 357.874217,100.18267 C357.874217,100.18267 349.32,87.5316159 348.635663,81.0351288 C348.190843,76.8295082 345.761446,66.9138173 347.232771,58.7761124 C347.13012,54.741452 347.848675,49.3391101 351.030843,43.765808 C357.532048,32.4824356 358.900723,35.2177986 362.664578,31.1147541 C366.428434,27.0117096 379.430843,30.088993 382.510361,42.3981265 C382.510361,42.3981265 390.517108,51.2880562 389.695904,65.4777518 C390.414458,65.5803279 390.927711,66.1274005 391.064578,67.3583138 C391.406747,70.4355972 390.380241,80.6932084 385.58988,81.0351288 C385.58988,81.0351288 385.076627,85.6510539 383.707952,88.0444965 C383.707952,88.0444965 383.673735,88.3522248 383.673735,88.8309133 C383.571084,90.9850117 383.434217,96.7976581 384.323855,99.6355972 C391.612048,101.721311 397.668434,105.687588 398.489639,106.268852 C398.558072,106.303044 398.592289,106.337237 398.592289,106.337237 C426.992289,114.543326 424.939277,129.245902 425.623614,131.639344 C426,132.870258 424.870843,134.203747 423.639036,135.195316 Z" opacity=".4"/>
      <g transform="translate(170.4)">
        <path fill="#040242" d="M121.812048,22.2248244 C121.46988,32.824356 119.074699,55.3911007 119.074699,55.3911007 L60.5638554,57.1007026 C60.5638554,57.1007026 57.826506,40.0046838 60.5638554,30.088993 C63.3012048,20.1733021 61.5903614,17.0960187 78.0144578,7.52224824 C78.0144578,7.52224824 82.8048193,-1.70960187 93.0698795,0.683840749 C103.33494,3.07728337 122.154217,11.6252927 121.812048,22.2248244 Z"/>
        <path fill="url(#1@svg-u)" d="M121.812048,22.2248244 C121.46988,32.824356 119.074699,55.3911007 119.074699,55.3911007 L60.5638554,57.1007026 C60.5638554,57.1007026 57.826506,40.0046838 60.5638554,30.088993 C63.3012048,20.1733021 61.5903614,17.0960187 78.0144578,7.52224824 C78.0144578,7.52224824 82.8048193,-1.70960187 93.0698795,0.683840749 C103.33494,3.07728337 122.154217,11.6252927 121.812048,22.2248244 Z"/>
        <path fill="#FFF" d="M174.33494,240.199063 C173.582169,240.882904 172.14506,241.532553 170.263133,242.079625 C167.183614,243.00281 162.940723,243.755035 158.697831,244.3363 C157.568675,244.50726 156.405301,244.644028 155.276145,244.780796 C148.159036,245.635597 141.828916,246.01171 141.828916,246.01171 C141.863133,246.080094 141.897349,246.114286 141.931566,246.18267 C146.379759,254.696487 150.964819,256.029977 150.109398,264.543794 C138.61253,269.501639 126.60241,273.775644 114.25012,277.331616 C107.440964,279.314754 100.563373,281.09274 93.5831325,282.631382 C93.5831325,282.631382 93.5831325,282.631382 93.5489157,282.631382 C89.8877108,282.973302 86.4660241,283.246838 83.4891566,283.451991 C72.5739759,284.135831 55.5681928,282.392037 42.0525301,279.314754 C36.7146988,278.118033 31.8901205,276.681967 28.2631325,275.143326 C25.1151807,273.809836 22.8568675,272.37377 21.7961446,270.903513 C21.0433735,269.877752 20.9407229,268.783607 21.5566265,267.723653 C21.7619277,267.347541 21.9672289,267.005621 22.1383133,266.629508 C24.0886747,262.731616 24.4992771,258.9363 24.3624096,255.9274 C24.2939759,254.422951 24.0886747,253.123653 23.8833735,252.132084 C23.6096386,250.935363 23.3701205,250.148946 23.3016867,249.977986 C23.3016867,249.943794 23.3016867,249.943794 23.3016867,249.943794 C23.3016867,249.943794 12.7628916,252.542389 5.91951807,234.557377 C3.35325301,227.855738 1.33445783,218.247775 0.54746988,204.57096 C0.479036145,203.305855 0.41060241,202.040749 0.376385542,200.70726 C-1.64240964,147.128337 14.9185542,123.467447 21.6250602,119.501171 C21.7277108,119.432787 21.8303614,119.398595 21.933012,119.330211 C25.5942169,117.415457 35.380241,112.560187 43.2843373,108.696487 C49.4433735,105.687588 54.4390361,103.259953 54.4390361,103.259953 C54.986506,102.439344 55.7392771,101.413583 56.5604819,100.35363 C59.2978313,96.763466 63.1985542,92.181733 65.6963855,89.3096019 C67.133494,87.634192 68.1257831,86.5400468 68.1257831,86.5400468 C68.1257831,86.5400468 99.7763855,81.5822014 104.566747,85.0014052 C106.27759,86.2323185 107.406747,88.0786885 108.501687,90.2327869 C110.349398,93.8229508 112.026024,98.1995316 116.029398,101.447775 C116.303133,101.687119 116.576867,101.892272 116.884819,102.097424 C124.070361,107.22623 149.390843,117.483841 149.390843,117.483841 C149.938313,117.586417 150.52,117.757377 151.033253,117.928337 C151.751807,118.167681 152.436145,118.441218 153.120482,118.783138 C168.449639,126.134426 174.33494,156.155035 174.33494,156.155035 C190.759036,211.135831 178.783133,236.096019 174.33494,240.199063 Z"/>
        <path fill="url(#1@svg-v)" d="M76.9879518,207.545667 C76.9879518,207.545667 79.7253012,205.494145 89.6481928,206.519906 C99.5710843,207.545667 102.616386,208.366276 105.011566,208.126932 C107.406747,207.887588 126.636627,204.639344 132.590361,203.340047 C138.544096,202.074941 139.912771,198.313817 140.597108,191.81733 C141.281446,185.320843 137.859759,179.679157 138.030843,165.421077 C138.236145,151.128806 134.13012,136.76815 123.180723,135.058548 C112.231325,133.348946 80.7175904,151.299766 78.5277108,170.549883 C76.3036145,189.765808 76.9879518,207.545667 76.9879518,207.545667 Z"/>
        <path fill="url(#1@svg-w)" d="M124.515181,246.729742 C116.474217,248.097424 99.4342169,251.858548 85.2,255.41452 C67.4072289,259.859485 32.1638554,249.943794 29.426506,249.601874 C28.0578313,249.430913 25.4915663,249.70445 23.2674699,249.977986 C23.2674699,249.943794 23.2674699,249.943794 23.2674699,249.943794 C23.2674699,249.943794 12.7286747,252.542389 5.8853012,234.557377 C3.31903614,227.855738 1.30024096,218.247775 0.513253012,204.57096 C12.5233735,203.887119 34.7301205,208.024356 44.8240964,213.700234 C58.1686747,221.222482 75.6192771,226.351288 75.6192771,226.351288 C75.6192771,226.351288 84.173494,231.480094 89.6481928,232.505855 C95.1228916,233.531616 105.387952,240.028103 112.231325,242.763466 C116.132048,244.3363 121.02506,245.772365 124.515181,246.729742 Z"/>
        <path fill="url(#1@svg-x)" d="M86.226506,135.058548 C86.226506,135.058548 83.4891566,137.793911 82.1204819,140.187354 C80.7518072,142.580796 79.3831325,148.735363 78.6987952,164.805621 C78.0144578,180.875878 78.6987952,206.519906 78.6987952,206.519906 C74.9349398,207.887588 76.3720482,210.657143 76.3720482,210.657143 L43.7975904,207.887588 C43.7975904,207.887588 38.6650602,184.637002 35.9277108,177.456674 C33.1903614,170.276347 28.7421687,149.761124 27.0313253,135.058548 C26.1416867,127.296956 23.7122892,122.407494 21.5908434,119.501171 C21.693494,119.432787 21.7961446,119.398595 21.8987952,119.330211 C25.56,117.415457 35.3460241,112.560187 43.2501205,108.696487 C49.4091566,105.687588 54.4048193,103.259953 54.4048193,103.259953 C54.9522892,102.439344 55.7050602,101.413583 56.5262651,100.35363 C55.8077108,103.807026 54.986506,107.944262 54.4048193,112.833724 C53.3783133,121.244965 51.3937349,128.014988 51.3253012,128.220141 C57.4843373,120.697892 69.460241,115.569087 69.460241,115.569087 C69.460241,115.569087 69.460241,115.569087 69.460241,115.569087 C69.7681928,115.740047 79.4173494,121.108197 82.1204819,125.484778 C84.8578313,129.929742 86.226506,135.058548 86.226506,135.058548 Z"/>
        <path fill="#FFCDA8" d="M158.766265 191.133489C156.028916 195.578454 155.344578 196.604215 155.344578 196.604215 155.344578 196.604215 157.39759 198.655738 154.318072 200.023419 151.238554 201.391101 140.289157 200.36534 131.392771 203.784543 131.392771 203.784543 134.814458 189.081967 147.13253 180.192037 147.13253 180.192037 150.212048 179.508197 150.212048 183.611241 150.212048 183.611241 152.128193 182.41452 154.181205 181.901639 156.542169 181.320375 158.560964 183.713817 157.568675 185.970492L157.39759 186.346604C157.39759 186.346604 161.503614 186.688525 158.766265 191.133489zM75.6192771 226.351288C70.486747 228.06089 54.0626506 230.796253 52.0096386 230.796253 49.9566265 230.796253 36.9542169 228.40281 36.9542169 228.40281 24.6361446 233.531616 17.7927711 236.266979 15.739759 233.189696 13.686747 230.112412 22.2409639 228.40281 24.2939759 227.035129 26.346988 225.667447 33.1903614 222.590164 33.1903614 222.590164 29.426506 218.82904 20.5301205 222.932084 16.0819277 224.983607 11.6337349 227.035129 10.6072289 226.009368 8.55421687 223.615925 6.50120482 221.222482 21.2144578 214.725995 21.2144578 214.725995 19.1614458 214.042155 16.0819277 215.751756 16.0819277 215.751756 16.0819277 215.751756 7.52771084 221.906323 4.79036145 219.17096 2.05301205 216.435597 10.2650602 211.306792 10.2650602 211.306792 4.1060241 210.28103 7.52771084 206.861827 7.52771084 206.861827 19.5036145 198.997658 24.9783133 201.04918 36.9542169 201.04918 48.9301205 201.04918 50.9831325 204.468384 57.826506 206.177986 64.6698795 207.887588 76.9879518 207.545667 76.9879518 207.545667 75.2771084 213.700234 75.6192771 226.351288 75.6192771 226.351288zM120.101205 62.5714286C116.337349 72.1451991 112.573494 71.1194379 112.573494 71.1194379 112.573494 72.8974239 110.862651 76.3850117 109.630843 78.6416862 109.630843 78.6416862 109.630843 78.6416862 109.630843 78.6758782 108.980723 79.8725995 108.46747 80.6932084 108.46747 80.6932084L108.46747 93.0023419C108.46747 93.0023419 105.387952 115.911007 100.255422 119.330211 95.1228916 122.749415 86.226506 135.058548 86.226506 135.058548 86.226506 135.058548 84.8578313 129.929742 82.1204819 125.484778 79.4173494 121.108197 69.7681928 115.740047 69.460241 115.569087 69.460241 115.569087 69.460241 115.569087 69.460241 115.569087 69.1180723 108.730679 64.6698795 102.234192 64.6698795 102.234192 66.7228916 95.7377049 65.0120482 74.5386417 65.0120482 74.5386417 63.6433735 70.7775176 63.3012048 66.6744731 63.3012048 66.6744731 58.5108434 65.9906323 56.4578313 51.2880562 58.5108434 48.2107728 60.5638554 45.1334895 62.2746988 54.3653396 63.3012048 54.0234192 64.3277108 53.6814988 66.7228916 31.1147541 67.0650602 26.3278689 67.2361446 23.7976581 69.460241 22.771897 71.4790361 22.3957845 73.053012 22.0880562 74.6954217 22.1564403 76.2693976 22.5325527 93.9253012 26.430445 97.346988 21.882904 104.703614 22.2248244 112.231325 22.5667447 114.284337 28.0374707 113.6 40.3466042 112.915663 52.6557377 115.995181 54.3653396 115.995181 54.3653396 120.785542 48.5526932 123.86506 52.9976581 120.101205 62.5714286z"/>
        <path fill="url(#1@svg-x)" d="M140.631325,191.81733 C147.474699,198.655738 131.392771,203.784543 131.392771,203.784543 C131.392771,203.784543 114.968675,207.203747 104.019277,208.229508 C93.0698795,209.255269 80.4096386,206.519906 80.4096386,206.519906 C80.4096386,206.519906 75.9614458,152.838407 84.5156627,139.503513 C84.5156627,139.503513 98.2024096,135.742389 99.2289157,129.587822 C100.255422,123.433255 98.886747,124.459016 102.992771,121.039813 C102.992771,121.039813 105.045783,120.355972 105.387952,117.620609 C105.387952,117.620609 120.101205,127.87822 124.549398,127.194379 C124.549398,127.194379 119.108916,109.58548 115.995181,101.413583 C116.268916,101.652927 116.542651,101.85808 116.850602,102.063232 C124.036145,107.192037 149.356627,117.449649 149.356627,117.449649 C149.904096,117.552225 150.485783,117.723185 150.999036,117.894145 C146.071807,123.6726 140.426024,131.194848 140.631325,135.058548 C140.973494,141.896956 133.787952,184.978923 140.631325,191.81733 Z"/>
        <path fill="url(#1@svg-y)" d="M108.46747,81.0351288 L108.46747,93.0023419 C108.46747,93.0023419 105.387952,115.911007 100.255422,119.330211 C95.1228916,122.749415 86.226506,135.058548 86.226506,135.058548 C86.226506,135.058548 84.8578313,129.929742 82.1204819,125.484778 C79.4173494,121.108197 69.7681928,115.740047 69.460241,115.569087 C69.460241,115.569087 69.460241,115.569087 69.460241,115.569087 C69.1180723,108.730679 64.6698795,102.234192 64.6698795,102.234192 C66.7228916,95.7377049 65.0120482,74.5386417 65.0120482,74.5386417 C65.0120482,74.5386417 71.513253,97.1053864 86.226506,98.1311475 C97.7918072,98.9517564 105.62747,86.4374707 108.46747,81.0351288 Z"/>
        <path fill="url(#1@svg-z)" d="M75.6192771,226.351288 C70.486747,228.06089 54.0626506,230.796253 52.0096386,230.796253 C49.9566265,230.796253 36.9542169,228.40281 36.9542169,228.40281 C24.6361446,233.531616 17.7927711,236.266979 15.739759,233.189696 C13.686747,230.112412 22.2409639,228.40281 24.2939759,227.035129 C26.346988,225.667447 33.1903614,222.590164 33.1903614,222.590164 C29.426506,218.82904 20.5301205,222.932084 16.0819277,224.983607 C11.6337349,227.035129 10.6072289,226.009368 8.55421687,223.615925 C6.50120482,221.222482 21.2144578,214.725995 21.2144578,214.725995 C19.1614458,214.042155 16.0819277,215.751756 16.0819277,215.751756 C16.0819277,215.751756 7.52771084,221.906323 4.79036145,219.17096 C2.05301205,216.435597 10.2650602,211.306792 10.2650602,211.306792 C4.1060241,210.28103 7.52771084,206.861827 7.52771084,206.861827 C19.5036145,198.997658 24.9783133,201.04918 36.9542169,201.04918 C48.9301205,201.04918 50.9831325,204.468384 57.826506,206.177986 C64.6698795,207.887588 76.9879518,207.545667 76.9879518,207.545667 C75.2771084,213.700234 75.6192771,226.351288 75.6192771,226.351288 Z"/>
        <path fill="url(#1@svg-A)" d="M158.766265,191.133489 C156.028916,195.578454 155.344578,196.604215 155.344578,196.604215 C155.344578,196.604215 157.39759,198.655738 154.318072,200.023419 C151.238554,201.391101 140.289157,200.36534 131.392771,203.784543 C131.392771,203.784543 134.814458,189.081967 147.13253,180.192037 C147.13253,180.192037 150.212048,179.508197 150.212048,183.611241 C150.212048,183.611241 152.128193,182.41452 154.181205,181.901639 C156.542169,181.320375 158.560964,183.713817 157.568675,185.970492 L157.39759,186.346604 C157.39759,186.346604 161.503614,186.688525 158.766265,191.133489 Z"/>
      </g>
    </g>
  </g>
</svg>
