<svg xmlns="http://www.w3.org/2000/svg" width="386" height="309" viewBox="0 0 386 309">
  <defs>
    <linearGradient id="2@svg-a" x1="54.478%" x2="47.834%" y1="-58.597%" y2="76.804%">
      <stop offset="0%" stop-color="#FDB714"/>
      <stop offset="5%" stop-color="#FDB714" stop-opacity=".95"/>
      <stop offset="53%" stop-color="#FDB714" stop-opacity=".44"/>
      <stop offset="85%" stop-color="#FDB714" stop-opacity=".12"/>
      <stop offset="100%" stop-color="#FDB714" stop-opacity="0"/>
    </linearGradient>
    <linearGradient id="2@svg-b" x1="74.883%" x2="30.117%" y1="131.242%" y2="-17.898%">
      <stop offset="0%" stop-color="#040242"/>
      <stop offset="58%" stop-color="#040242" stop-opacity=".38"/>
      <stop offset="100%" stop-color="#040242" stop-opacity="0"/>
    </linearGradient>
    <linearGradient id="2@svg-c" x1="107735%" x2="101203%" y1="37178.411%" y2="58408.727%">
      <stop offset="0%" stop-color="#040242"/>
      <stop offset="58%" stop-color="#040242" stop-opacity=".38"/>
      <stop offset="100%" stop-color="#040242" stop-opacity="0"/>
    </linearGradient>
    <linearGradient id="2@svg-d" x1="97760%" x2="100417%" y1="1974.43%" y2="10851.206%">
      <stop offset="0%" stop-color="#040242"/>
      <stop offset="58%" stop-color="#040242" stop-opacity=".38"/>
      <stop offset="100%" stop-color="#040242" stop-opacity="0"/>
    </linearGradient>
    <linearGradient id="2@svg-e" x1="21.046%" x2="66.447%" y1="-19.308%" y2="66.487%">
      <stop offset="0%" stop-color="#0097B1"/>
      <stop offset="45%" stop-color="#0097B1" stop-opacity=".51"/>
      <stop offset="83%" stop-color="#0097B1" stop-opacity=".14"/>
      <stop offset="100%" stop-color="#0097B1" stop-opacity="0"/>
    </linearGradient>
    <linearGradient id="2@svg-f" x1="31832%" x2="42178%" y1="21530.102%" y2="33138.196%">
      <stop offset="0%" stop-color="#040242"/>
      <stop offset="58%" stop-color="#040242" stop-opacity=".38"/>
      <stop offset="100%" stop-color="#040242" stop-opacity="0"/>
    </linearGradient>
    <linearGradient id="2@svg-g" x1="104.444%" x2="47.853%" y1="9.196%" y2="57.105%">
      <stop offset="0%" stop-color="#573EA0"/>
      <stop offset="28%" stop-color="#573EA0" stop-opacity=".69"/>
      <stop offset="77%" stop-color="#573EA0" stop-opacity=".2"/>
      <stop offset="100%" stop-color="#573EA0" stop-opacity="0"/>
    </linearGradient>
    <linearGradient id="2@svg-h" x1="78203%" x2="26311%" y1="43193.788%" y2="34582.801%">
      <stop offset="0%" stop-color="#0097B1"/>
      <stop offset="45%" stop-color="#0097B1" stop-opacity=".51"/>
      <stop offset="83%" stop-color="#0097B1" stop-opacity=".14"/>
      <stop offset="100%" stop-color="#0097B1" stop-opacity="0"/>
    </linearGradient>
    <linearGradient id="2@svg-i" x1="86936%" x2="104184%" y1="37962.245%" y2="55954.497%">
      <stop offset="0%" stop-color="#040242"/>
      <stop offset="58%" stop-color="#040242" stop-opacity=".38"/>
      <stop offset="100%" stop-color="#040242" stop-opacity="0"/>
    </linearGradient>
    <linearGradient id="2@svg-j" x1="112.942%" x2="18.033%" y1="-.368%" y2="83.71%">
      <stop offset="0%" stop-color="#F19049"/>
      <stop offset="18%" stop-color="#F19049" stop-opacity=".81"/>
      <stop offset="58%" stop-color="#F19049" stop-opacity=".38"/>
      <stop offset="87%" stop-color="#F19049" stop-opacity=".11"/>
      <stop offset="100%" stop-color="#F19049" stop-opacity="0"/>
    </linearGradient>
    <linearGradient id="2@svg-k" x1="56143%" x2="50521%" y1="37535.202%" y2="44223.655%">
      <stop offset="0%" stop-color="#F19049"/>
      <stop offset="18%" stop-color="#F19049" stop-opacity=".81"/>
      <stop offset="58%" stop-color="#F19049" stop-opacity=".38"/>
      <stop offset="87%" stop-color="#F19049" stop-opacity=".11"/>
      <stop offset="100%" stop-color="#F19049" stop-opacity="0"/>
    </linearGradient>
    <linearGradient id="2@svg-l" x1="50517.36%" x2="56233.975%" y1="46638%" y2="56509%">
      <stop offset="0%" stop-color="#F19049"/>
      <stop offset="18%" stop-color="#F19049" stop-opacity=".81"/>
      <stop offset="58%" stop-color="#F19049" stop-opacity=".38"/>
      <stop offset="87%" stop-color="#F19049" stop-opacity=".11"/>
      <stop offset="100%" stop-color="#F19049" stop-opacity="0"/>
    </linearGradient>
    <linearGradient id="2@svg-m" x1="40900.132%" x2="30442.084%" y1="58643%" y2="65381%">
      <stop offset="0%" stop-color="#F19049"/>
      <stop offset="18%" stop-color="#F19049" stop-opacity=".81"/>
      <stop offset="58%" stop-color="#F19049" stop-opacity=".38"/>
      <stop offset="87%" stop-color="#F19049" stop-opacity=".11"/>
      <stop offset="100%" stop-color="#F19049" stop-opacity="0"/>
    </linearGradient>
    <linearGradient id="2@svg-n" x1="6492.377%" x2="10175.417%" y1="60282%" y2="71898%">
      <stop offset="0%" stop-color="#573EA0"/>
      <stop offset="28%" stop-color="#573EA0" stop-opacity=".69"/>
      <stop offset="77%" stop-color="#573EA0" stop-opacity=".2"/>
      <stop offset="100%" stop-color="#573EA0" stop-opacity="0"/>
    </linearGradient>
  </defs>
  <g fill="none" transform="translate(-67 10)">
    <path fill="#F5EBFD" d="M538.482168,408.530254 C534.821555,422.789513 526.833713,435.6768 515.512787,447.103477 C464.063842,499.080404 343.791527,520.457731 248.785145,497.974348 C222.559746,491.769643 196.492332,481.788162 171.646406,469.070444 C164.60647,465.447821 158.312785,461.979353 152.106441,458.3259 C122.66741,441.099173 95.4748387,420.099523 72.4707788,397.165239 C57.6896107,382.431956 44.6385637,366.897071 33.8301236,351.038462 C33.3561706,350.344768 32.8860708,349.647221 32.4236777,348.953527 C19.6500666,329.857681 10.1825666,310.322496 4.87275176,291.184258 C-0.729912058,270.997771 -1.7009377,251.250624 3.00391273,232.90628 C20.8908216,163.151525 116.698685,129.738612 177.900273,123.345069 C312.764945,109.259233 453.378706,208.291715 512.287595,303.95593 C535.553678,341.727551 546.076975,378.975049 538.482168,408.530254 Z"/>
    <path fill="url(#2@svg-a)" d="M538.609416,146.278513 C534.948803,160.537773 526.960962,173.42506 515.640036,184.851737 C464.19109,236.828664 343.918775,258.205991 248.912393,235.722608 C222.686994,229.517903 196.61958,219.536421 171.773654,206.818704 L171.114744,206.479565 C164.733718,203.196081 158.440033,199.727613 152.233689,196.074159 C122.794658,178.847432 95.6020869,157.847783 72.5980271,134.913498 C57.816859,120.180215 44.765812,104.64533 33.9573718,88.7867217 C33.4834188,88.093028 33.0133191,87.3954804 32.5509259,86.7017867 C19.7773148,67.6059409 10.3098148,48.0707557 5,28.9325175 C23.5887829,18.7056742 43.4251912,10.9331449 64.0129274,5.80939433 C145.270819,-14.2306457 181.098583,22.6507357 296.750819,39.7233082 C406.322585,55.9094944 465.347073,36.2548398 512.414843,41.7041891 C535.680926,79.4758107 546.204224,116.723308 538.609416,146.278513 Z" opacity=".39"/>
    <g transform="translate(23 10)">
      <path fill="#77D2FF" d="M216.083908,70.4424658 L204.917241,90.4589041 C204.917241,90.4589041 176.037931,133.956164 159.865517,122.408219 C143.693103,110.860274 154.089655,80.8356164 152.934483,64.2835616 C151.77931,47.7315068 173.342529,47.7315068 173.342529,47.7315068 C185.27931,36.9534247 211.078161,41.5726027 218.394253,51.5808219 C225.710345,61.5890411 216.083908,70.0575342 216.083908,70.4424658 Z"/>
      <path fill="url(#2@svg-b)" d="M216.083908,70.4424658 L204.917241,90.4589041 C204.917241,90.4589041 176.037931,133.956164 159.865517,122.408219 C143.693103,110.860274 154.089655,80.8356164 152.934483,64.2835616 C151.77931,47.7315068 173.342529,47.7315068 173.342529,47.7315068 C185.27931,36.9534247 211.078161,41.5726027 218.394253,51.5808219 C225.710345,61.5890411 216.083908,70.0575342 216.083908,70.4424658 Z"/>
      <path fill="#77D2FF" d="M410.922989,236.732877 L410.922989,242.891781 L405.532184,247.510959 L348.158621,249.050685 L341.997701,247.126027 L333.141379,232.475534 L391.146437,232.475534 C392.888811,232.46754 394.524131,231.633905 395.553827,230.228784 C396.583523,228.823663 396.885546,227.013604 396.367816,225.350452 L377.885057,166.097945 L383.198851,154.742466 L410.922989,236.732877 Z"/>
      <path fill="url(#2@svg-c)" d="M410.922989,236.732877 L410.922989,242.891781 L405.532184,247.510959 L348.158621,249.050685 L341.997701,247.126027 L333.141379,232.475534 L391.146437,232.475534 C392.888811,232.46754 394.524131,231.633905 395.553827,230.228784 C396.583523,228.823663 396.885546,227.013604 396.367816,225.350452 L377.885057,166.097945 L383.198851,154.742466 L410.922989,236.732877 Z" opacity=".67"/>
      <path fill="#77D2FF" d="M398.601149,38.4931507 L369.949023,215.126671 L366.256322,237.887671 L326.191092,200.80337 C325.237882,199.92173 324.79342,198.619171 325.008966,197.338986 L327.388621,183.054178 L344.816322,78.5375753 C344.982465,77.5383945 345.535867,76.6449423 346.356552,76.0509178 L398.601149,38.4931507 Z"/>
      <path fill="url(#2@svg-d)" d="M349.544828,87.537274 L336.42977,167.322027 C336.302488,168.095683 336.657382,168.869191 337.326954,169.277479 L363.406897,185.190548 C363.956181,185.526409 364.637055,185.56554 365.221224,185.294822 C365.805394,185.024104 366.215516,184.479377 366.31408,183.843288 L383.757184,71.5972603 C383.869644,70.8738538 383.561822,70.1493047 382.962989,69.7278906 C382.364157,69.3064764 381.578017,69.2611761 380.934713,69.6110137 L350.515172,86.1630685 C349.998012,86.4481209 349.640327,86.954676 349.544828,87.537274 Z" opacity=".49"/>
      <polygon fill="#040242" points="398.601 38.493 402.837 40.418 371.262 237.888 366.256 237.888"/>
      <path fill="#FFCDA8" d="M251.124138,156.282192 C249.968966,161.286301 242.267816,160.131507 233.796552,158.206849 L231.486207,154.742466 C231.486207,154.742466 221.089655,149.738356 215.698851,142.809589 C210.308046,135.880822 204.917241,133.186301 203.377011,129.721918 L211.463218,130.491781 C211.463218,130.491781 221.474713,140.884932 223.4,137.035616 C225.325287,133.186301 219.934483,125.10274 218.394253,120.09863 C216.854023,115.094521 219.934483,112.784932 225.325287,118.558904 C225.325287,118.558904 229.945977,114.324658 233.796552,121.253425 C233.796552,121.253425 238.417241,119.328767 240.727586,122.793151 C245.194399,123.044665 249.17389,125.696791 251.124138,129.721918 C254.589655,136.650685 252.27931,151.278082 251.124138,156.282192 Z"/>
      <path fill="#FFCDA8" d="M222.244828,92.7684932 C221.85977,98.1575342 222.629885,111.245205 219.549425,117.019178 C216.468966,122.793151 218.009195,128.567123 211.463218,130.491781 C206.804023,131.862137 203.511782,129.721918 200.335057,129.48711 C198.96068,129.352216 197.582913,129.708137 196.445977,130.491781 C191.825287,133.571233 185.664368,142.809589 185.664368,142.809589 L159.865517,115.094521 C159.865517,115.094521 169.39954,103.731342 172.006379,98.8889041 C172.071839,98.7695753 172.133448,98.6540959 172.187356,98.5424658 C171.605276,97.650528 171.069342,96.7293315 170.581667,95.7825068 C168.305977,91.4058356 165.113851,83.0220274 171.802299,79.6808219 C181.043678,75.0616438 182.583908,87.7643836 184.509195,89.6890411 C186.434483,91.6136986 191.825287,90.4589041 191.825287,90.4589041 C191.825287,90.4589041 193.365517,84.3 194.905747,75.8315068 C195.254458,73.9356375 195.47189,72.0179733 195.556494,70.0921781 C195.741592,64.9869191 199.884887,60.9159547 204.994253,60.8191781 C209.437816,60.7652877 214.162471,61.7199178 216.457414,65.4383562 C221.474713,73.5219178 222.629885,87.3794521 222.244828,92.7684932 Z"/>
      <path fill="#040242" d="M246.364828,157.821918 C247.769792,157.866091 249.141405,157.388926 250.215402,156.482356 C250.740215,156.009158 251.155461,155.427216 251.432184,154.77711 C251.744395,154.03534 251.901636,153.2376 251.894253,152.432877 C251.894253,152.432877 254.589655,165.520548 254.974713,174.373973 C255.188145,181.357689 254.979836,188.347917 254.35092,195.306548 C253.838793,200.757178 253.041724,205.568822 251.894253,207.863014 C249.841897,211.962534 220.153966,219.849781 206.072414,223.391151 C201.644253,224.503603 198.756322,225.184932 198.756322,225.184932 L195.645057,232.687247 L192.352816,240.624534 L192.210345,240.967123 C192.210345,240.967123 193.619655,240.728466 195.625805,240.451315 C196.611552,240.31274 197.743621,240.166466 198.918046,240.035589 L199.002759,240.035589 C204.008506,239.481288 209.807471,239.196438 209.137471,240.982521 L208.490575,242.703164 C206.646149,247.576397 202.02546,259.486178 199.01046,263.997575 C198.642607,264.623159 198.159116,265.173114 197.585747,265.618137 C195.568046,266.876863 167.501207,274.894986 148.340747,280.287877 L147.509023,280.522685 C145.309061,279.390986 143.119368,278.236192 140.939943,277.058301 C136.801858,274.828265 132.70228,272.518676 128.641207,270.129534 L122.907701,225.631452 L120.720575,208.655973 L113.735632,154.319041 L113.735632,154.272849 L113.292816,150.846959 L113.25431,150.535164 L112.503448,144.734247 L114.220805,143.240712 L129.315057,130.106849 L152.006494,110.359863 L154.089655,108.550685 L154.209023,108.681562 L159.984885,114.952096 L168.413793,124.128863 L182.59546,139.526123 L182.822644,139.772479 L185.27931,142.424658 L192.210345,133.956164 L192.479885,134.075493 C193.643914,134.603466 194.778885,135.193253 195.879943,135.842329 C199.622701,138.017192 205.352356,142.105164 208.767816,148.19863 C211.686552,153.410603 216.642241,164.042411 221.301437,172.999767 C225.248276,180.582918 229.002586,186.965082 231.101149,187.846575 C231.101149,187.846575 233.411494,179.378082 232.641379,172.064384 C232.641379,172.064384 230.331034,158.976712 231.871264,157.436986 C233.411494,155.89726 242.375632,157.845014 246.364828,157.821918 Z"/>
      <path fill="url(#2@svg-e)" d="M214.705402,205.757438 L210.693103,212.482192 L206.072414,223.391151 C201.644253,224.503603 198.756322,225.184932 198.756322,225.184932 L195.645057,232.687247 L192.352816,240.624534 L167.181609,242.891781 L153.31954,241.352055 L113.273563,150.84311 L113.211954,150.700685 L113.235057,150.531315 L114.205402,143.240712 L115.968966,130.106849 L143.693103,124.332877 L173.253966,153.64926 C174.24643,154.409923 175.519717,154.703802 176.745305,154.455074 C177.970893,154.206347 179.028743,153.439373 179.64592,152.352041 L185.27931,142.424658 L191.201494,151.035575 C191.598985,151.614678 192.315141,151.885119 192.996361,151.713367 C193.67758,151.541615 194.179781,150.963997 194.255,150.265712 L195.879943,135.83463 C199.622701,138.009493 205.352356,142.097466 208.767816,148.190932 C211.686552,153.402904 216.642241,164.034712 221.301437,172.992068 C222.910477,184.346399 220.582753,195.909217 214.705402,205.757438 Z"/>
      <path fill="#77D2FF" d="M151.009195,239.812329 L150.154368,243.792521 L149.110862,248.665753 L146.388506,261.368493 L136.334655,246.055918 L95.3529885,183.639274 L64.7563218,137.035616 C64.7563218,137.035616 76.308046,123.563014 89.7850575,133.956164 C103.262069,144.349315 112.503448,157.052055 112.503448,157.052055 L118.27931,143.964384 C118.27931,143.964384 121.35977,145.50411 124.055172,154.742466 C125.252701,158.853534 130.720517,176.136959 136.415517,194.063219 C140.708908,207.558918 145.133218,221.420301 147.967241,230.292973 C149.83092,236.132384 151.009195,239.812329 151.009195,239.812329 Z"/>
      <polygon fill="url(#2@svg-f)" points="151.009 249.051 149.111 248.662 136.335 246.056 95.353 183.639 102.892 181.742 112.503 161.671 128.714 181.742 136.416 194.063 144.078 206.323 147.967 230.293 150.154 243.793" opacity=".61"/>
      <path fill="#FFCDA8" d="M345.848276,152.047945 C343.475555,152.772813 341.012886,153.161528 338.532184,153.20274 C338.532184,153.20274 346.94954,153.691603 345.848276,155.89726 C343.922989,159.746575 336.606897,159.746575 336.606897,159.746575 C336.606897,159.746575 338.147126,162.826027 336.221839,164.365753 C334.296552,165.905479 335.836782,168.984932 333.526437,170.909589 C331.655057,172.468562 330.06092,176.29863 326.595402,176.683562 C323.668966,177.006904 316.071782,178.708301 309.140747,179.227959 C306.609536,179.422088 304.194944,180.371517 302.209713,181.953274 C293.160862,189.151493 267.581494,209.23337 258.455632,213.636986 L243.053333,190.156164 C243.053333,190.156164 301.197011,159.361644 306.587816,155.89726 C311.978621,152.432877 326.610805,146.273973 340.472874,146.658904 C354.334943,147.043836 349.313793,150.893151 345.848276,152.047945 Z"/>
      <path fill="#654EAE" d="M260.365517,213.252055 C257.670115,216.716438 234.566667,232.113699 221.85977,234.423288 C216.946437,235.316329 206.800172,234.423288 195.645057,232.687247 C178.37908,229.992726 161.263276,225.269616 154.940632,221.970753 C154.474713,221.720548 162.945977,237.887671 156.4,260.983562 C154.416954,267.985466 150.031149,274.271397 148.190575,280.842178 L147.532126,280.503438 C141.155575,277.223822 117.550268,324.928709 111.348276,321.279558 C63.0312644,292.971695 -30.7453364,280.503438 10.4516667,162.929959 C10.7147149,162.179237 9.50827586,161.540356 9.0462069,160.847479 C18.172069,154.303644 38.5531609,140.684767 53.4664368,137.682301 C57.4363793,136.881644 61.2677011,136.696877 64.7447701,137.405151 L65.4917816,138.175014 C68.3335057,141.062 78.8263218,151.878575 89.8967241,165.151014 C97.5632184,174.327781 105.491552,184.678589 111.348276,194.390411 C114.505747,199.629329 117.667069,204.356288 120.735977,208.652123 C133.003908,225.81237 143.839425,236.036151 147.539828,244.038877 C147.428161,243.530767 140.993851,214.930356 134.255345,196.018671 C131.805029,189.083045 129.74812,182.014734 128.094425,174.847438 C126.076724,166.198027 123.797184,155.985795 123.354368,152.194219 C123.211897,150.962438 126.176839,151.624521 130.089023,153.406753 C136.762069,156.46311 146.207529,162.826027 147.543678,168.6 C147.543678,168.6 152.437759,172.31074 161.671437,177.168575 C167.341421,180.137006 173.165294,182.801928 179.118391,185.152055 C199.526437,193.235616 214.928736,191.69589 222.629885,199.394521 C222.629885,199.394521 239.957471,188.616438 246.503448,188.616438 C248.917759,188.616438 251.80569,191.495726 254.35092,195.306548 C255.77909,197.464332 257.033203,199.732324 258.101379,202.089041 C260.342414,207.027712 261.52069,211.766219 260.365517,213.252055 Z"/>
      <path fill="url(#2@svg-g)" d="M156.4,260.983562 C154.416954,267.985466 150.031149,274.271397 148.190575,280.842178 L147.532126,280.503438 C141.155575,277.223822 136.890908,312.238022 130.089023,313.80531 C53.4664368,331.460653 0.671386051,239.782125 10.4516667,162.929959 C10.5637587,162.049155 9.50827586,161.540356 9.0462069,160.847479 C18.172069,154.303644 38.5531609,140.684767 53.4664368,137.682301 C57.4363793,136.881644 61.2677011,136.696877 64.7447701,137.405151 L65.4917816,138.175014 C68.3335057,141.062 78.8263218,151.878575 89.8967241,165.151014 C97.5632184,174.327781 105.491552,184.678589 111.348276,194.390411 C114.505747,199.629329 117.667069,204.356288 120.735977,208.652123 C133.003908,225.81237 143.839425,236.036151 147.539828,244.038877 C147.428161,243.530767 140.993851,214.930356 134.255345,196.018671 C131.805029,189.083045 129.74812,182.014734 128.094425,174.847438 C126.076724,166.198027 123.797184,155.985795 123.354368,152.194219 C123.211897,150.962438 126.176839,151.624521 130.089023,153.406753 C134.848333,166.494425 146.134368,197.65463 150.63569,210.557534 C152.17592,214.918808 153.596782,218.668041 154.952184,221.970753 C154.79046,221.886068 154.632586,221.805233 154.486264,221.720548 C154.474713,221.720548 162.945977,237.887671 156.4,260.983562 Z"/>
      <path fill="#040242" d="M151.009195,72.7520548 L153.127011,62.9363014 L146.850575,75.6698356 L140.805172,87.9568493 L100.759195,101.814384 C100.759195,101.814384 80.7362069,113.362329 80.3511494,113.74726 C80.1624713,113.935877 82.083908,120.360384 84.5867816,128.497836 C84.6753448,128.790384 84.7677586,129.075233 84.8563218,129.360082 C85.9190805,132.824466 87.081954,136.550603 88.2255747,140.222849 C88.2448276,140.27674 88.2602299,140.326781 88.2756322,140.376822 C88.3064368,140.484603 88.341092,140.592384 88.3757471,140.700164 L88.3988506,140.777151 C88.3988506,140.83489 88.4335057,140.896479 88.4527586,140.954219 C88.5913793,141.39689 88.7261494,141.839562 88.8647701,142.278384 C90.2586782,146.758986 91.5948276,151.054822 92.6614368,154.542301 C96.897069,168.399836 99.0148851,172.826548 66.285,150.500521 C33.5551149,128.174493 9.29649425,33.866274 37.4056897,8.84572603 C65.5148851,-16.1748219 80.5321264,21.9333973 80.5321264,21.9333973 L80.5590805,21.9333973 L84.7677586,18.4690137 C109.026379,4.22654795 128.279253,20.7786027 144.066609,34.636137 C159.853966,48.4936712 151.009195,72.7520548 151.009195,72.7520548 Z"/>
      <path fill="url(#2@svg-h)" d="M146.850575,75.6698356 L140.805172,87.9568493 L100.759195,101.814384 C100.759195,101.814384 80.7362069,113.362329 80.3511494,113.74726 C80.1624713,113.935877 82.083908,120.360384 84.5867816,128.497836 C84.6753448,128.790384 84.7677586,129.075233 84.8563218,129.360082 C85.9190805,132.824466 87.081954,136.550603 88.2255747,140.222849 C88.2448276,140.27674 88.2602299,140.326781 88.2756322,140.376822 C88.3064368,140.484603 88.341092,140.592384 88.3757471,140.700164 L88.3988506,140.777151 C88.3988506,140.83489 88.4335057,140.896479 88.4527586,140.954219 C88.5913793,141.39689 88.7261494,141.839562 88.8647701,142.278384 C78.3761927,138.387867 68.9362797,132.112464 61.2908046,123.947945 C38.3606322,99.2160959 30.9713793,54.4870548 51.6643678,36.5684932 C71.8144253,19.1195479 113.111839,31.8415342 134.066667,55.0452055 C139.509451,61.1140255 143.837227,68.096146 146.850575,75.6698356 Z"/>
      <path fill="#FFCDA8" d="M156.207471,101.044521 C156.207471,101.044521 154.166667,106.699164 153.704598,112.4 C153.31954,117.019178 151.586782,118.75137 151.586782,118.75137 C156.977586,131.45411 150.431609,131.839041 150.431609,131.839041 C141.625345,131.103822 128.098276,132.993836 126.846839,133.170904 L126.750575,133.170904 C121.744828,133.940767 112.118391,158.191452 112.118391,158.191452 C112.118391,158.191452 86.7045977,138.944877 85.9344828,133.555836 C85.1643678,128.166795 80.1586207,115.848986 80.5436782,113.539397 C80.9287356,111.229808 105.957471,88.1339178 107.112644,86.2092603 C107.285245,85.7931352 107.355239,85.3416257 107.316724,84.8927945 C107.316724,80.8587123 105.060287,70.1730137 114.428736,68.502411 C125.210345,66.5777534 121.35977,78.1256986 130.601149,79.2804932 C139.842529,80.4352877 150.23908,50.0256986 150.23908,50.0256986 C150.23908,50.0256986 156.977586,65.6154247 155.822414,72.9291233 C154.378448,82.0712466 155.052299,82.1674795 158.132759,90.6359726 C161.213218,99.1044658 156.207471,101.044521 156.207471,101.044521 Z"/>
      <path fill="url(#2@svg-i)" d="M369.949023,215.126671 L366.256322,237.887671 L326.191092,200.80337 C325.237882,199.92173 324.79342,198.619171 325.008966,197.338986 L327.388621,183.054178 L369.949023,215.126671 Z" opacity=".46"/>
      <path fill="url(#2@svg-j)" d="M126.827586,133.186301 L126.731322,133.186301 C121.725575,133.956164 112.099138,158.206849 112.099138,158.206849 C112.099138,158.206849 86.6853448,138.960274 85.9152299,133.571233 C85.1451149,128.182192 80.1393678,115.864384 80.5244253,113.554795 C80.9094828,111.245205 105.938218,88.1493151 107.093391,86.2246575 C107.265992,85.8085324 107.335986,85.3570229 107.297471,84.9081918 C109.272816,91.6444932 112.64977,93.9232877 112.099138,97.7726027 C111.329023,103.161644 110.558908,113.939726 110.558908,113.939726 C112.137644,125.964986 120.281609,131.034534 126.827586,133.186301 Z"/>
      <path fill="url(#2@svg-k)" d="M200.335057,129.48711 C198.96068,129.352216 197.582913,129.708137 196.445977,130.491781 C191.825287,133.571233 185.664368,142.809589 185.664368,142.809589 L159.865517,115.094521 C159.865517,115.094521 169.39954,103.731342 172.006379,98.8889041 C172.339406,99.4570897 172.704518,100.005863 173.099943,100.532562 C174.62804,102.4931 176.818216,103.830039 179.260862,104.293342 C180.266448,104.504921 181.168184,105.056935 181.813793,105.856164 C183.631264,108.038726 184.077931,123.262767 200.335057,129.48711 Z"/>
      <path fill="url(#2@svg-l)" d="M251.124138,156.282192 C249.968966,161.286301 242.267816,160.131507 233.796552,158.206849 L231.486207,154.742466 C231.486207,154.742466 221.089655,149.738356 215.698851,142.809589 C210.308046,135.880822 204.917241,133.186301 203.377011,129.721918 L211.463218,130.491781 C211.463218,130.491781 221.474713,140.884932 223.4,137.035616 C225.325287,133.186301 219.934483,125.10274 218.394253,120.09863 C216.854023,115.094521 219.934483,112.784932 225.325287,118.558904 C225.325287,118.558904 229.945977,114.324658 233.796552,121.253425 C233.796552,121.253425 238.417241,119.328767 240.727586,122.793151 C245.194399,123.044665 249.17389,125.696791 251.124138,129.721918 C254.589655,136.650685 252.27931,151.278082 251.124138,156.282192 Z"/>
      <path fill="url(#2@svg-m)" d="M345.848276,152.047945 C343.475555,152.772813 341.012886,153.161528 338.532184,153.20274 C338.532184,153.20274 346.94954,153.691603 345.848276,155.89726 C343.922989,159.746575 336.606897,159.746575 336.606897,159.746575 C336.606897,159.746575 338.147126,162.826027 336.221839,164.365753 C334.296552,165.905479 335.836782,168.984932 333.526437,170.909589 C331.655057,172.468562 330.06092,176.29863 326.595402,176.683562 C323.668966,177.006904 316.071782,178.708301 309.140747,179.227959 C306.609536,179.422088 304.194944,180.371517 302.209713,181.953274 C293.160862,189.151493 267.581494,209.23337 258.455632,213.636986 L243.053333,190.156164 C243.053333,190.156164 301.197011,159.361644 306.587816,155.89726 C311.978621,152.432877 326.610805,146.273973 340.472874,146.658904 C354.334943,147.043836 349.313793,150.893151 345.848276,152.047945 Z"/>
      <path fill="url(#2@svg-n)" d="M258.101379,202.089041 C249.352874,208.020836 238.028333,212.971055 224.170115,213.636986 C220.065402,213.833301 193.327011,214.657055 173.342529,194.005479 C168.570755,189.057939 164.629645,183.372431 161.671437,177.168575 C167.341421,180.137006 173.165294,182.801928 179.118391,185.152055 C199.526437,193.235616 214.928736,191.69589 222.629885,199.394521 C222.629885,199.394521 239.957471,188.616438 246.503448,188.616438 C248.917759,188.616438 251.80569,191.495726 254.35092,195.306548 C255.77909,197.464332 257.033203,199.732324 258.101379,202.089041 Z"/>
    </g>
  </g>
</svg>
