<svg xmlns="http://www.w3.org/2000/svg" width="386" height="309" viewBox="0 0 386 309">
  <defs>
    <linearGradient id="3@svg-a" x1="10.317%" x2="71.476%" y1="-74.162%" y2="109.549%">
      <stop offset="0%" stop-color="#FDB714"/>
      <stop offset="100%" stop-color="#FDB714" stop-opacity="0"/>
    </linearGradient>
    <linearGradient id="3@svg-b" x1="114.282%" x2="35.527%" y1="-16.087%" y2="69.333%">
      <stop offset="0%" stop-color="#654EAE"/>
      <stop offset="100%" stop-color="#654EAE" stop-opacity="0"/>
    </linearGradient>
    <linearGradient id="3@svg-c" x1="135.436%" x2="9.063%" y1="44.534%" y2="52.692%">
      <stop offset="0%" stop-color="#0097B1"/>
      <stop offset="100%" stop-color="#0097B1" stop-opacity="0"/>
    </linearGradient>
    <linearGradient id="3@svg-d" x1="133.156%" x2="60.79%" y1="62.587%" y2="51.513%">
      <stop offset="0%" stop-color="#040242"/>
      <stop offset="100%" stop-color="#040242" stop-opacity="0"/>
    </linearGradient>
    <linearGradient id="3@svg-e" x1="6.211%" x2="77.214%" y1="116.53%" y2="-26.499%">
      <stop offset="0%" stop-color="#040242"/>
      <stop offset="100%" stop-color="#040242" stop-opacity="0"/>
    </linearGradient>
    <linearGradient id="3@svg-f" x1="35.193%" x2="61.863%" y1="-28.289%" y2="112.943%">
      <stop offset="0%" stop-color="#0097B1"/>
      <stop offset="100%" stop-color="#0097B1" stop-opacity="0"/>
    </linearGradient>
    <linearGradient id="3@svg-g" x1="4.978%" x2="72.526%" y1="-36.37%" y2="110.549%">
      <stop offset="0%" stop-color="#040242"/>
      <stop offset="100%" stop-color="#040242" stop-opacity="0"/>
    </linearGradient>
    <linearGradient id="3@svg-h" x1="82.623%" x2="24.388%" y1="-291.966%" y2="312.882%">
      <stop offset="0%" stop-color="#040242"/>
      <stop offset="100%" stop-color="#040242" stop-opacity="0"/>
    </linearGradient>
    <linearGradient id="3@svg-i" x1="43.763%" x2="57.122%" y1="84.716%" y2="3.562%">
      <stop offset="0%" stop-color="#573EA0"/>
      <stop offset="100%" stop-color="#573EA0" stop-opacity="0"/>
    </linearGradient>
    <linearGradient id="3@svg-j" x1="56.188%" x2="93.89%" y1="48.18%" y2="131.046%">
      <stop offset="0%" stop-color="#573EA0"/>
      <stop offset="100%" stop-color="#573EA0" stop-opacity="0"/>
    </linearGradient>
    <linearGradient id="3@svg-k" x1="23.881%" x2="61.51%" y1="6.069%" y2="72.14%">
      <stop offset="0%" stop-color="#573EA0"/>
      <stop offset="100%" stop-color="#573EA0" stop-opacity="0"/>
    </linearGradient>
    <linearGradient id="3@svg-l" x1="9.95%" x2="66.196%" y1="-16.806%" y2="77.457%">
      <stop offset="0%" stop-color="#0097B1"/>
      <stop offset="100%" stop-color="#0097B1" stop-opacity="0"/>
    </linearGradient>
    <linearGradient id="3@svg-m" x1="-11.093%" x2="81.276%" y1="-93.132%" y2="130.049%">
      <stop offset="0%" stop-color="#040242"/>
      <stop offset="100%" stop-color="#040242" stop-opacity="0"/>
    </linearGradient>
    <linearGradient id="3@svg-n" x1="137.423%" x2="-78.812%" y1="90.447%" y2="-14.244%">
      <stop offset="0%" stop-color="#F19049"/>
      <stop offset="100%" stop-color="#F19049" stop-opacity="0"/>
    </linearGradient>
    <linearGradient id="3@svg-o" x1="-40.284%" x2="107.861%" y1="-4.438%" y2="103.578%">
      <stop offset="0%" stop-color="#0097B1"/>
      <stop offset="100%" stop-color="#0097B1" stop-opacity="0"/>
    </linearGradient>
    <linearGradient id="3@svg-p" x1="-32.142%" x2="67.906%" y1="-29.859%" y2="92.619%">
      <stop offset="0%" stop-color="#040242"/>
      <stop offset="100%" stop-color="#040242" stop-opacity="0"/>
    </linearGradient>
    <linearGradient id="3@svg-q" x1="-67.994%" x2="74.981%" y1="-84.689%" y2="74.115%">
      <stop offset="0%" stop-color="#040242"/>
      <stop offset="100%" stop-color="#040242" stop-opacity="0"/>
    </linearGradient>
    <linearGradient id="3@svg-r" x1="54.34%" x2="50.37%" y1="-31.65%" y2="86.167%">
      <stop offset="0%" stop-color="#573EA0"/>
      <stop offset="100%" stop-color="#573EA0" stop-opacity="0"/>
    </linearGradient>
    <linearGradient id="3@svg-s" x1="78.942%" x2="23.095%" y1="101.134%" y2="33.089%">
      <stop offset="0%" stop-color="#573EA0"/>
      <stop offset="100%" stop-color="#573EA0" stop-opacity="0"/>
    </linearGradient>
    <linearGradient id="3@svg-t" x1="161.406%" x2="7.044%" y1="-4.96%" y2="84.587%">
      <stop offset="0%" stop-color="#0097B1"/>
      <stop offset="100%" stop-color="#0097B1" stop-opacity="0"/>
    </linearGradient>
    <linearGradient id="3@svg-u" x1="52.91%" x2="47.501%" y1="1.206%" y2="98.572%">
      <stop offset="0%" stop-color="#F19049"/>
      <stop offset="100%" stop-color="#F19049" stop-opacity="0"/>
    </linearGradient>
    <linearGradient id="3@svg-v" x1="51.39%" x2="42.34%" y1="1.038%" y2="100.148%">
      <stop offset="0%" stop-color="#F19049"/>
      <stop offset="100%" stop-color="#F19049" stop-opacity="0"/>
    </linearGradient>
    <linearGradient id="3@svg-w" x1="52.907%" x2="47.342%" y1="-.157%" y2="102.069%">
      <stop offset="0%" stop-color="#F19049"/>
      <stop offset="100%" stop-color="#F19049" stop-opacity="0"/>
    </linearGradient>
    <linearGradient id="3@svg-x" x1="-20.317%" x2="93.119%" y1="29.218%" y2="60.251%">
      <stop offset="0%" stop-color="#F19049"/>
      <stop offset="100%" stop-color="#F19049" stop-opacity="0"/>
    </linearGradient>
    <linearGradient id="3@svg-y" x1="158.271%" x2="-100.544%" y1="71.285%" y2="17.897%">
      <stop offset="0%" stop-color="#F19049"/>
      <stop offset="100%" stop-color="#F19049" stop-opacity="0"/>
    </linearGradient>
    <linearGradient id="3@svg-z" x1="123.572%" x2="-7.132%" y1="-29.802%" y2="111.172%">
      <stop offset="0%" stop-color="#0097B1"/>
      <stop offset="100%" stop-color="#0097B1" stop-opacity="0"/>
    </linearGradient>
  </defs>
  <g fill="none" fill-rule="evenodd" transform="translate(-72 -8)">
    <g fill-rule="nonzero" transform="translate(56 37)">
      <path fill="#F5EBFD" d="M415.122348,288.160088 C410.237492,293.048761 404.749566,297.605487 391.331288,302.463982 C380.476051,306.386991 364.464576,310.551416 339.376918,315.22885 C337.085257,315.651327 334.733289,316.103982 332.260707,316.52646 C315.163709,319.574336 294.267378,322.863628 268.516344,326.515044 C132.464043,345.647257 83.9170113,342.599381 62.6588392,335.598319 C62.5683789,335.568142 62.4779186,335.537965 62.3874583,335.507788 C55.2109406,333.123805 51.1703803,330.256991 47.9138092,327.691947 C41.1292862,322.350619 35.1589059,316.254867 29.9423616,309.585752 C29.3392929,308.831327 28.7362241,308.046726 28.1633089,307.262124 C11.7899933,285.23292 3.4676451,257.560619 0.96490994,230.884159 C-0.452301534,215.674956 1.11022302e-16,200.767522 1.95997332,187.399115 C2.47258172,183.83823 9.52848566,140.534248 40.28499,103.356195 C49.3913276,92.3717699 60.5480987,81.930531 74.2377585,73.1792035 C128.996398,38.3247788 159.511674,72.1833628 245.117278,36.3029204 C293.061241,16.2352212 303.162642,-2.62539823 334.069913,0.573362832 C383.340627,5.70345133 414.278052,59.5693805 422.449633,73.7827434 C435.596531,96.6569027 445.125017,124.570619 449.376651,153.359469 C456.643629,202.910088 448.170514,254.995575 415.122348,288.160088 Z"/>
      <path fill="url(#3@svg-a)" d="M415.122348,288.160088 C410.237492,293.048761 404.749566,297.605487 391.331288,302.463982 C380.476051,306.386991 364.464576,310.551416 339.376918,315.22885 C337.085257,315.651327 334.733289,316.103982 332.260707,316.52646 C315.163709,319.574336 294.267378,322.863628 268.516344,326.515044 C132.464043,345.647257 83.9170113,342.599381 62.6588392,335.598319 C62.5683789,335.568142 62.4779186,335.537965 62.3874583,335.507788 C55.2109406,333.123805 51.1703803,330.256991 47.9138092,327.691947 C41.1292862,322.350619 35.1589059,316.254867 29.9423616,309.585752 C29.3392929,308.831327 28.7362241,308.046726 28.1633089,307.262124 C11.7899933,285.23292 3.4676451,257.560619 0.96490994,230.884159 C-0.452301534,215.674956 -2.77555756e-17,200.767522 1.95997332,187.399115 C2.47258172,183.83823 9.52848566,140.534248 40.28499,103.356195 C59.040427,113.857788 81.2032021,124.027434 106.743162,131.873451 C141.057772,142.435398 168.889393,144.909912 248.46431,146.358407 C379.269913,148.742389 422.087792,144.185664 449.346498,153.359469 C456.643629,202.910088 448.170514,254.995575 415.122348,288.160088 Z" opacity=".39"/>
      <path fill="url(#3@svg-b)" d="M332.290861,316.52646 C315.193863,319.574336 294.297532,322.863628 268.546498,326.515044 C132.494196,345.647257 83.9471648,342.599381 62.6889927,335.598319 C62.5985324,335.568142 62.508072,335.537965 62.4176117,335.507788 L165.240827,269.178761 L292.488326,269.178761 L332.290861,316.52646 Z"/>
    </g>
    <g fill-rule="nonzero" transform="translate(56 67)">
      <path fill="#040242" d="M169.688283,50.346798 C169.085483,61.2 146.480472,83.2078818 146.480472,83.2078818 C146.480472,83.2078818 140.452469,82.3034483 138.342668,80.4945813 C136.232867,78.6857143 127.793662,75.9724138 131.109064,66.626601 C131.109064,66.626601 122.97126,48.8394089 139.246868,41.6039409 C155.522476,34.3684729 170.291083,39.4935961 169.688283,50.346798 Z"/>
      <path fill="#654EAE" d="M362.584377,41.0009852 C359.570376,51.5527094 360.775976,55.1704433 360.775976,55.1704433 L330.937362,59.0896552 L313.757553,35.5743842 C313.757553,35.5743842 310.140752,27.1330049 305.92115,25.0226601 C301.701548,22.9123153 310.442152,14.7724138 310.442152,14.7724138 C336.663965,-11.7576355 353.240973,6.02955665 353.240973,6.02955665 C368.61238,6.02955665 365.598379,30.4492611 362.584377,41.0009852 Z"/>
      <path fill="url(#3@svg-c)" d="M169.688283,50.346798 C169.085483,61.2 146.480472,83.2078818 146.480472,83.2078818 C146.480472,83.2078818 140.452469,82.3034483 138.342668,80.4945813 C136.232867,78.6857143 127.793662,75.9724138 131.109064,66.626601 C131.109064,66.626601 122.97126,48.8394089 139.246868,41.6039409 C155.522476,34.3684729 170.291083,39.4935961 169.688283,50.346798 Z"/>
      <path fill="url(#3@svg-d)" d="M362.584377,41.0009852 C359.570376,51.5527094 360.775976,55.1704433 360.775976,55.1704433 L330.937362,59.0896552 L313.757553,35.5743842 C313.757553,35.5743842 310.140752,27.1330049 305.92115,25.0226601 C301.701548,22.9123153 310.442152,14.7724138 310.442152,14.7724138 C336.663965,-11.7576355 353.240973,6.02955665 353.240973,6.02955665 C368.61238,6.02955665 365.598379,30.4492611 362.584377,41.0009852 Z"/>
      <path fill="#0097B1" d="M48.5254237,155.562562 L34.0883567,171.08867 L31.3456153,167.923153 C31.3456153,167.923153 29.8386146,163.702463 24.7148121,155.562562 C19.5910096,147.42266 11.4532056,132.348768 22.6050111,121.495567 C33.7568165,110.642365 55.156227,106.723153 64.8010317,115.46601 C74.4458364,124.208867 48.5254237,155.562562 48.5254237,155.562562 Z"/>
      <path fill="url(#3@svg-e)" d="M48.5254237,155.562562 L34.0883567,171.08867 L31.3456153,167.923153 C31.3456153,167.923153 29.8386146,163.702463 24.7148121,155.562562 C19.5910096,147.42266 11.4532056,132.348768 22.6050111,121.495567 C33.7568165,110.642365 55.156227,106.723153 64.8010317,115.46601 C74.4458364,124.208867 48.5254237,155.562562 48.5254237,155.562562 Z"/>
      <path fill="#040242" d="M326.71776,223.093596 C326.71776,223.093596 325.813559,242.0867 337.266765,239.071921 C348.719971,236.057143 338.472366,216.159606 338.472366,216.159606 L326.71776,223.093596 Z"/>
      <path fill="#040242" d="M394.472513,246.608867 C393.869713,250.859704 393.146352,255.381872 392.422992,259.934187 C391.729772,264.154877 391.006411,268.435862 390.283051,272.626404 C379.432646,276.545616 363.428298,280.70601 338.351805,285.378916 C338.291525,276.786798 338.924466,267.139507 339.738246,258.577537 C340.160206,254.206108 340.612307,250.10601 341.064407,246.608867 C341.938467,239.373399 342.722108,234.549754 342.722108,234.549754 C342.722108,234.549754 394.864333,208.019704 396.672734,220.983251 C397.185114,224.962759 396.160354,234.821084 394.472513,246.608867 Z"/>
      <path fill="url(#3@svg-f)" d="M394.472513,246.608867 C393.869713,250.859704 393.146352,255.381872 392.422992,259.934187 C391.729772,264.154877 391.006411,268.435862 390.283051,272.626404 C379.432646,276.545616 363.428298,280.70601 338.351805,285.378916 C338.291525,276.786798 338.924466,267.139507 339.738246,258.577537 C340.160206,254.206108 340.612307,250.10601 341.064407,246.608867 L394.472513,246.608867 Z" opacity=".74"/>
      <polygon fill="#040242" points="243.531 242.268 264.027 198.553 285.727 205.186 262.489 255.352"/>
      <polygon fill="#0097B1" points="262.489 255.352 215.803 257.281 208.418 253.06 203.144 250.046 194.162 244.921 194.072 242.81 203.144 242.72 243.531 242.268 262.369 252.94 262.369 252.97"/>
      <polygon fill="url(#3@svg-g)" points="262.489 255.352 215.803 257.281 208.418 253.06 203.144 250.046 203.144 242.72 243.531 242.268 262.369 252.94 262.369 252.97"/>
      <polygon fill="url(#3@svg-h)" points="262.489 255.352 215.803 257.281 208.418 253.06 209.473 249.925 214.898 255.05 262.369 252.97"/>
      <polygon fill="#F5EBFD" points="350.559 93.609 335.519 148.026 333.349 155.864 329.943 148.026 324.005 134.459 333.349 84.112"/>
      <polygon fill="url(#3@svg-i)" points="350.559 93.609 335.519 148.026 329.943 148.026 324.005 134.459 333.349 84.112"/>
      <polygon fill="#654EAE" points="344.802 104.311 333.349 84.112 339.075 64.818 356.737 54.055 361.077 55.17 365.598 65.722"/>
      <path fill="#040242" d="M408.0958 245.402956C404.780398 260.175369 374.037583 267.410837 354.446573 266.807882 334.855564 266.204926 332.444363 238.770443 333.348563 233.042365 333.800663 230.148177 333.258143 227.585616 331.690862 224.420099 330.153721 221.314877 327.59182 217.6067 324.005158 212.541872 316.771555 202.291626 311.044952 155.864039 311.044952 155.864039 310.984672 155.894187 310.924392 155.894187 310.833972 155.924335 290.127782 161.079606 274.846794 172.746798 270.054532 171.239409 265.23213 169.73202 261.012528 149.231527 261.012528 149.231527 277.589536 139.885714 285.72734 146.819704 294.467944 137.473892 303.208548 128.128079 310.743552 128.128079 314.963154 123.002956 315.415254 122.430148 315.897494 121.797044 316.349595 121.133793 316.349595 121.133793 316.349595 121.133793 316.349595 121.133793 320.177377 115.586601 324.005158 106.723153 324.005158 106.723153 328.827561 88.6344828 335.759764 73.5605911 335.759764 73.5605911 335.759764 73.5605911 337.568165 82.3034483 333.348563 91.6492611 329.128961 100.995074 328.827561 137.473892 328.827561 137.473892 333.649963 112.752709 345.404569 80.7960591 353.843773 69.6413793 362.282977 58.4866995 361.077377 55.1704433 361.077377 55.1704433 365.387399 58.6675862 366.984819 60.3257143 369.03434 62.9485714 370.842741 65.2699507 372.982682 68.3450246 377.654385 74.1635468 383.471408 81.368867 389.04731 92.4029557 392.784672 104.220887 395.436993 112.662266 397.124834 121.495567 397.245394 129.635468 397.456374 143.714483 396.733014 149.382266 397.787915 157.974384 398.179735 161.320788 398.872955 165.119409 399.957996 170.033498 403.876197 187.519212 411.411201 230.630542 408.0958 245.402956zM164.38364 239.403547L118.540678 268.134384 112.120855 268.315271 90.4200442 254.145813C90.4200442 254.145813 92.2284451 239.071921 95.8452469 223.696552 99.4620486 208.321182 108.504053 197.769458 108.504053 197.769458 108.504053 197.769458 164.26308 193.247291 163.35888 210.130049 162.96706 217.335369 163.56986 228.731232 164.38364 239.403547z"/>
      <path fill="#654EAE" d="M224.54311,182.092611 C224.54311,182.092611 215.501105,182.092611 204.9521,181.188177 C197.085556,180.524926 186.174871,179.168276 181.141489,178.535172 C181.141489,178.535172 181.111349,178.535172 181.081209,178.535172 C181.020929,178.535172 180.960648,178.505025 180.900368,178.505025 C180.809948,178.505025 180.719528,178.474877 180.598968,178.474877 C179.242668,178.29399 178.459027,178.203547 178.459027,178.203547 C178.459027,178.203547 177.253427,220.711921 160.073618,221.013399 C153.894915,221.13399 145.184451,220.169261 136.383567,218.390542 C120.771039,215.194877 104.796831,209.346207 101.90339,202.020296 C98.0454679,192.222266 112.301695,187.27803 115.888357,160.657537 C116.491157,156.195665 116.792557,151.130837 116.671997,145.342463 C116.461017,136.328276 117.425497,128.79133 118.992778,122.520591 C124.478261,100.723744 137.739867,94.3625616 137.739867,94.3625616 L137.770007,94.3324138 L143.76787,88.0315271 L151.604274,92.5536946 L162.303979,94.7846305 C162.303979,94.7846305 163.4493,95.689064 164.896021,97.1060099 C166.644141,98.8545813 168.844363,101.356847 169.838983,103.859113 C171.647384,108.381281 176.469786,135.514286 176.469786,143.654187 C176.469786,151.794089 176.469786,154.507389 176.469786,154.507389 C176.469786,154.507389 176.921887,154.778719 177.645247,155.17064 C179.574208,156.225813 183.40199,158.125123 185.813191,158.125123 C187.139352,158.125123 189.008032,158.517044 191.178113,158.908966 C194.433235,159.511921 198.411717,160.175172 202.390199,159.632512 C209.021002,158.728079 218.665807,156.617734 221.679808,160.536946 C224.69381,164.456158 226.502211,173.500493 224.54311,182.092611 Z"/>
      <path fill="url(#3@svg-j)" d="M224.57325,182.002167 C223.518349,181.610246 219.811127,179.771232 220.323508,173.048276 C220.715328,168.104039 223.247089,168.91803 225.05549,170.184236 C225.53773,173.832118 225.47745,177.962365 224.57325,182.002167 Z"/>
      <path fill="url(#3@svg-k)" d="M224.57325,182.002167 C224.57325,182.032315 224.57325,182.062463 224.54311,182.092611 C224.54311,182.092611 215.501105,182.092611 204.9521,181.188177 C197.085556,180.524926 186.174871,179.168276 181.141489,178.535172 C181.141489,178.535172 181.111349,178.535172 181.081209,178.535172 C181.051069,178.535172 180.960648,178.535172 180.900368,178.505025 C180.809948,178.505025 180.719528,178.474877 180.598968,178.474877 C177.012307,177.962365 161.068239,176.063054 153.141415,167.048867 C144.400811,157.100099 123.6042,133.886305 126.618202,123.937537 C129.632203,113.988768 148.319013,112.782857 152.237214,123.636059 C156.155416,134.489261 163.08762,148.960197 176.349226,154.688276 C176.771186,154.869163 177.223287,155.050049 177.675387,155.200788 C179.604348,156.255961 183.43213,158.155271 185.843331,158.155271 C189.158732,158.155271 195.789536,160.567094 202.420339,159.66266 C209.051142,158.758227 218.695947,156.647882 221.709948,160.567094 C223.307369,162.617143 224.54311,166.114286 225.08563,170.214384 C225.53773,173.832118 225.47745,177.962365 224.57325,182.002167 Z"/>
      <path fill="#040242" d="M174.480545,244.046305 C174.480545,244.046305 178.730287,243.895567 177.524687,250.226601 C176.319086,256.557635 167.879882,254.748768 167.879882,254.748768 C167.879882,254.748768 166.614001,246.910345 174.480545,244.046305 Z"/>
      <path fill="#FFCDA8" d="M214.446205,253.512709 C213.240604,255.472315 211.522623,257.190739 209.925203,258.818719 C205.4042,263.340887 200.280398,261.833498 200.280398,261.833498 C196.964996,263.039409 190.936993,261.833498 186.415991,261.833498 C181.894989,261.833498 170.743183,260.024631 170.743183,260.024631 C168.030582,253.09064 171.647384,246.458128 171.647384,246.458128 C174.058585,246.15665 180.387988,248.869951 184.90899,247.965517 C189.429993,247.061084 198.170597,238.921182 201.787399,238.921182 C203.384819,238.921182 205.765881,239.22266 207.966102,239.524138 C214.536625,240.519015 217.972587,247.905222 214.446205,253.512709 Z"/>
      <path fill="url(#3@svg-l)" d="M408.0958,245.402956 C404.780398,260.175369 374.037583,267.410837 354.446573,266.807882 C334.855564,266.204926 332.444363,238.770443 333.348563,233.042365 C333.800663,230.148177 333.258143,227.585616 331.690862,224.420099 L333.348563,224.600985 C333.348563,224.600985 338.170965,228.520197 339.979366,228.520197 C341.787767,228.520197 362.885777,217.666995 367.10538,213.747783 C367.10538,213.747783 393.327192,195.056158 395.738394,186.3133 C397.275534,180.735961 397.094694,168.706995 397.787915,157.974384 C398.179735,161.320788 398.872955,165.119409 399.957996,170.033498 C403.876197,187.519212 411.411201,230.630542 408.0958,245.402956 Z"/>
      <path fill="#77D2FF" d="M170.743183,260.024631 C166.222181,261.53202 126.135962,258.517241 119.505158,258.215764 C112.934635,257.914286 93.5847458,248.719212 93.2833456,248.568473 C96.9001474,258.517241 111.970155,268.164532 111.970155,268.164532 L88.0389831,263.823251 L85.4770818,263.340887 C71.9140752,279.62069 79.9011791,286.403941 79.9011791,286.403941 C77.4899779,287.006897 63.9269713,286.102463 63.9269713,286.102463 C63.8666912,286.132611 63.8365512,286.132611 63.7762712,286.162759 C52.9861459,290.262857 43.0700811,284.564926 29.8687546,280.072906 C29.5974945,279.982463 29.3262343,279.861872 29.0549742,279.741281 C28.4521739,278.987586 27.8493736,278.203744 27.2767133,277.419901 C10.9106853,255.41202 2.59204127,227.766502 0.0904200442,201.115862 C2.26050111,197.618719 5.18408254,194.272315 8.28850405,191.197241 C17.1798084,182.454384 27.7589536,176.063054 27.7589536,176.063054 C28.9645542,172.44532 31.3757553,168.224631 31.3757553,168.224631 C31.3757553,168.224631 55.9398674,160.838424 58.9538688,166.566502 C61.6966102,171.751921 64.1680914,181.42936 64.6201916,183.177931 C64.6503316,183.358818 64.6804716,183.449261 64.6804716,183.449261 C80.0518791,184.655172 77.9420781,188.574384 89.6966839,196.412808 C101.45129,204.251232 108.082093,224.148768 117.726898,227.163547 C127.371702,230.178325 130.385704,234.097537 137.016507,236.207882 C143.64731,238.318227 155.100516,245.252217 160.827119,244.649261 C166.553721,244.046305 174.992926,244.046305 174.992926,244.046305 C167.427782,248.266995 170.743183,260.024631 170.743183,260.024631 Z"/>
      <path fill="url(#3@svg-m)" d="M170.743183,260.024631 C169.447163,260.4467 165.317981,260.506995 159.862638,260.386404 C158.415917,260.356256 156.908917,260.295961 155.311496,260.235665 C141.748489,259.723153 123.754901,258.39665 119.505158,258.215764 C113.296315,257.944433 95.6945468,249.683941 93.4943257,248.689064 C93.3737657,248.628768 93.2833456,248.598621 93.2833456,248.598621 C96.9001474,258.547389 111.970155,268.19468 111.970155,268.19468 L88.0389831,263.853399 L85.2962417,263.220296 C85.2962417,263.220296 86.5018423,259.904039 77.761238,257.190739 C69.0206338,254.477438 41.5932203,250.859704 37.3736183,246.639015 C37.3736183,246.639015 20.7966102,230.66069 25.3176124,213.777931 C28.0000737,203.799015 17.2702284,197.829754 8.25836404,191.227389 C17.1496684,182.484532 27.7288136,176.093202 27.7288136,176.093202 C27.7288136,176.093202 44.908622,191.468571 53.9506264,193.880394 C53.9506264,193.880394 55.7590273,188.453793 58.1702284,183.32867 C58.1702284,183.32867 61.1842299,187.850837 63.5954311,189.358227 C63.5954311,189.358227 64.0776713,186.825813 64.5900516,183.208079 C64.6201916,183.388966 64.6503316,183.479409 64.6503316,183.479409 C74.3252763,184.233103 77.0680177,186.072118 80.7149595,189.297931 C82.8549005,191.197241 85.2962417,193.548768 89.6665438,196.473103 C101.42115,204.311527 108.051953,224.209064 117.696758,227.223842 C127.341562,230.238621 130.355564,234.157833 136.986367,236.268177 C142.74311,238.107192 152.116654,243.563941 158.235077,244.588966 C159.169418,244.739704 160.043478,244.8 160.796979,244.709557 C161.218939,244.649261 161.640899,244.619113 162.092999,244.588966 C167.699042,244.106601 174.962786,244.106601 174.962786,244.106601 C167.427782,248.266995 170.743183,260.024631 170.743183,260.024631 Z" opacity=".58"/>
      <path fill="#FFCDA8" d="M176.017686 75.0679803C174.812085 83.5093596 177.524687 90.1418719 170.592483 90.4433498 170.592483 90.4433498 167.578482 90.3529064 165.920781 90.4734975L165.890641 90.4734975C165.498821 90.5036453 165.167281 90.5337931 164.986441 90.5940887 164.08224 90.8955665 159.259838 99.9399015 159.862638 102.050246 160.465438 104.160591 161.972439 109.88867 160.766839 113.506404 160.766839 113.506404 158.054237 108.381281 154.738836 103.256158 151.423434 98.1310345 145.094031 91.4985222 143.73773 88.0315271 143.73773 88.0315271 145.847531 85.3182266 143.73773 81.7004926 143.22535 80.8262069 142.59241 79.982069 141.899189 79.137931 141.869049 79.1077833 141.838909 79.0776355 141.838909 79.0474877 141.808769 79.0173399 141.808769 78.9871921 141.778629 78.9871921 141.748489 78.9570443 141.748489 78.9570443 141.748489 78.9570443 139.608548 76.2738916 137.137067 73.6208867 138.041268 71.1487685 139.246868 67.8325123 142.26087 69.0384236 144.06927 70.244335 145.877671 71.4502463 152.508475 66.3251232 151.302874 61.5014778 150.097273 56.6778325 156.426676 52.4571429 160.043478 50.9497537 163.66028 49.4423645 167.578482 48.2364532 168.784083 49.1408867 169.989683 50.0453202 170.592483 54.5674877 173.305085 58.7881773 173.305085 58.7881773 173.907885 61.5014778 174.209285 63.6118227 174.510685 65.7221675 177.223287 66.626601 176.017686 75.0679803zM256.943626 168.073892C256.642225 173.500493 250.312822 179.228571 245.79182 180.133005 241.270818 181.037438 238.256817 178.02266 234.640015 176.816749 231.023213 175.610837 220.474208 173.199015 220.474208 173.199015 219.570007 169.581281 221.679808 160.838424 221.679808 160.838424L223.126529 160.597241C225.53773 160.20532 227.888651 159.542069 230.119013 158.57734 233.554974 157.069951 237.503316 155.954483 237.503316 155.954483 237.503316 155.954483 257.245026 162.647291 256.943626 168.073892z"/>
      <path fill="url(#3@svg-n)" d="M256.943626,168.073892 C256.642225,173.500493 250.312822,179.228571 245.79182,180.133005 C241.270818,181.037438 238.256817,178.02266 234.640015,176.816749 C231.023213,175.610837 220.474208,173.199015 220.474208,173.199015 C219.570007,169.581281 221.679808,160.838424 221.679808,160.838424 L223.126529,160.597241 C225.53773,160.20532 227.888651,159.542069 230.119013,158.57734 C233.554974,157.069951 237.503316,155.954483 237.503316,155.954483 C237.503316,155.954483 257.245026,162.647291 256.943626,168.073892 Z"/>
      <path fill="#FFCDA8" d="M260.861828,164.456158 C259.354827,165.059113 256.943626,168.073892 256.943626,168.073892 L255.436625,167.772414 C254.231024,167.772414 246.997421,164.15468 246.997421,164.15468 C244.88762,164.15468 239.763817,161.139901 239.763817,161.139901 C238.558217,161.441379 236.147015,163.853202 236.147015,163.853202 C235.544215,167.470936 232.831614,169.882759 231.324613,169.882759 C229.817612,169.882759 231.626013,165.059113 231.324613,162.948768 C231.023213,160.838424 234.640015,158.426601 237.051216,156.316256 C239.462417,154.205911 242.476419,155.411823 246.696021,154.507389 C250.915623,153.602956 256.340825,150.889655 256.340825,150.889655 C256.642225,154.808867 260.861828,164.456158 260.861828,164.456158 Z"/>
      <path fill="#FFF" d="M267.432351,168.6467 C263.905969,169.73202 261.916728,167.320197 261.916728,167.320197 C257.395726,160.687685 256.190125,150.738916 256.190125,150.738916 L261.042668,149.32197 C261.283788,150.467586 263.966249,163.039212 267.432351,168.6467 Z"/>
      <path fill="#FFCDA8" d="M228.672292,177.359409 C229.033972,178.173399 229.666912,178.927094 230.721813,178.927094 L232.831614,178.02266 C232.831614,178.02266 233.434414,181.037438 237.352616,180.735961 C237.352616,180.735961 239.161017,183.147783 241.873618,181.338916 C241.873618,181.338916 245.18902,182.846305 245.79182,180.434483 C246.39462,178.02266 245.18902,178.02266 244.58622,177.118227 C243.983419,176.213793 242.777819,174.103448 240.366618,176.213793 C240.366618,176.213793 238.256817,175.007882 236.448416,175.912315 C235.122255,176.575567 233.102874,174.826995 230.782093,174.555665 C229.244952,174.374778 228.039352,175.942463 228.672292,177.359409 Z"/>
      <path fill="url(#3@svg-o)" d="M362.282977,98.8847291 C352.035372,109.134975 354.145173,135.665025 358.967576,154.658128 C363.789978,173.651232 365.899779,178.173399 355.652174,185.107389 C345.404569,192.041379 337.869565,200.181281 330.937362,203.196059 C324.005158,206.210837 325.210759,205.306404 325.210759,205.306404 C322.196758,198.673892 327.62196,170.033498 330.033161,154.658128 C332.444363,139.282759 352.035372,89.5389163 352.035372,89.5389163 L349.322771,85.6197044 L355.049374,83.2078818 C361.228077,78.0827586 366.080619,69.3097537 369.03434,62.9485714 C370.842741,65.2699507 372.982682,68.3450246 377.654385,74.1635468 C383.471408,81.368867 389.04731,92.4029557 392.784672,104.220887 C383.501548,95.5081773 370.089241,91.0764532 362.282977,98.8847291 Z" opacity=".57"/>
      <path fill="#FFCDA8" d="M333.197863 224.450246C333.197863 224.450246 325.361459 229.273892 322.950258 230.178325 320.539057 231.082759 320.237657 226.560591 320.237657 226.560591 316.319455 223.545813 317.223655 220.229557 317.223655 220.229557 313.908254 217.817734 315.716654 214.2 315.716654 214.2 314.511054 211.788177 314.812454 209.376355 318.127856 207.868966 321.443257 206.361576 322.950258 203.648276 325.361459 202.442365 327.77266 201.236453 331.088062 203.346798 331.088062 203.346798 328.375461 206.060099 327.16986 210.582266 327.16986 210.582266 324.758659 218.722167 333.197863 224.450246 333.197863 224.450246zM75.4103169 166.807685C74.2649963 170.636453 70.8591746 173.410049 66.8505527 173.621084 65.6750921 173.681379 64.4092115 173.621084 63.0227708 173.379901 63.0227708 173.379901 62.9926308 173.379901 62.9926308 173.379901 62.3596905 173.25931 61.6966102 173.108571 61.0335298 172.897537 61.0335298 172.897537 61.0335298 172.927685 61.0335298 172.98798 61.0938099 173.80197 61.39521 179.801379 58.3209285 183.449261 58.3209285 183.449261 54.7041268 180.434483 45.3607222 177.721182 36.0173176 175.007882 31.4963154 168.073892 31.4963154 168.073892 31.4963154 168.073892 37.8257185 163.551724 37.5243183 157.823645 37.5243183 157.823645 37.4640383 157.76335 37.3434783 157.703054 36.2885777 156.919212 30.8030951 152.517635 32.701916 147.874877 34.811717 142.749754 39.9355195 145.764532 41.1411201 147.874877 42.3467207 149.985222 44.7579219 152.397044 47.7719234 149.683744 50.7859248 146.970443 47.4705232 142.448276 51.9915254 139.433498 56.5125276 136.418719 52.2929256 130.992118 51.9915254 129.183251 51.6901253 127.374384 62.2391304 125.264039 63.7461312 121.646305 63.7461312 121.646305 71.1304348 128.128079 73.541636 138.378325 73.541636 138.378325 78.9969786 154.718424 75.4103169 166.807685zM360.926676 55.0197044C360.926676 55.0197044 344.952469 66.4758621 337.718865 77.9320197 337.718865 77.9320197 333.197863 73.1083744 330.485262 68.2847291 330.485262 68.2847291 321.835077 69.550936 319.484156 67.6516256 319.273176 67.5008867 319.122476 67.2898522 319.032056 67.0788177 317.826455 64.3655172 311.497052 45.3724138 310.592852 37.2325123 309.688651 29.0926108 312.099853 25.173399 312.099853 25.173399 312.099853 25.173399 313.606853 25.7763547 313.908254 28.791133 314.209654 31.8059113 316.922255 35.1221675 320.840457 38.7399015 320.840457 38.7399015 322.347458 46.879803 324.155859 47.4827586 325.964259 48.0857143 327.16986 45.9753695 327.47126 42.0561576 327.77266 38.1369458 331.690862 35.7251232 334.403464 40.5487685 334.765144 41.1818719 335.156964 41.8752709 335.548784 42.56867 338.261385 47.1812808 342.209727 52.6681773 347.96647 52.9093596 354.597273 53.2108374 360.926676 55.0197044 360.926676 55.0197044z"/>
      <path fill="#040242" d="M204.13832,236.539507 L215.712085,260.71803 L217.098526,262.044532 C217.369786,262.315862 217.821887,262.104828 217.791746,261.712906 L217.610906,259.783448 L206.037141,235.604926 C205.796021,235.092414 205.16308,234.851232 204.62056,235.122562 C204.10818,235.393892 203.86706,236.026995 204.13832,236.539507 Z"/>
      <path fill="url(#3@svg-p)" d="M155.311496,260.235665 C141.748489,259.723153 123.754901,258.39665 119.505158,258.215764 C113.296315,257.944433 95.6945468,249.683941 93.4943257,248.689064 C90.9625645,244.468374 89.0938836,237.745419 90.4200442,227.012808 C92.4997052,209.949163 84.6633014,200.934975 80.7149595,189.237635 C82.8549005,191.136946 85.2962417,193.488473 89.6665438,196.412808 C101.42115,204.251232 108.051953,224.148768 117.696758,227.163547 C127.341562,230.178325 130.355564,234.097537 136.986367,236.207882 C142.74311,238.046897 152.116654,243.503645 158.235077,244.52867 C157.391157,247.211823 156.306116,250.286897 154.919676,253.542857 C154.136035,255.381872 154.407296,257.673103 155.311496,260.235665 Z" opacity=".56"/>
      <path fill="url(#3@svg-q)" d="M170.743183,260.024631 C169.447163,260.4467 165.317981,260.506995 159.862638,260.386404 C157.541857,252.367094 159.742078,247.362562 162.092999,244.52867 C167.699042,244.046305 174.962786,244.046305 174.962786,244.046305 C167.427782,248.266995 170.743183,260.024631 170.743183,260.024631 Z"/>
      <path fill="url(#3@svg-r)" d="M191.178113,158.908966 L191.087693,162.195074 L115.858217,160.627389 C116.461017,156.165517 116.762417,151.10069 116.641857,145.312315 C115.737657,104.914286 137.739867,94.3625616 137.739867,94.3625616 L137.770007,94.3324138 C139.909948,96.3824631 142.77325,99.3670936 145.576271,103.105419 C149.795873,108.743054 154.557996,115.435862 158.024097,118.9933 C158.988578,119.988177 160.646279,119.294778 160.646279,117.90798 L160.646279,113.355665 C160.646279,113.355665 163.96168,116.973399 166.071481,117.274877 C167.789462,117.516059 165.739941,102.743645 164.896021,97.1060099 C166.644141,98.8545813 168.844363,101.356847 169.838983,103.859113 C171.647384,108.381281 176.469786,135.514286 176.469786,143.654187 C176.469786,151.794089 176.469786,154.507389 176.469786,154.507389 C176.469786,154.507389 176.921887,154.778719 177.645247,155.17064 C179.574208,156.225813 183.40199,158.125123 185.813191,158.125123 C187.139352,158.125123 189.008032,158.517044 191.178113,158.908966 Z"/>
      <path fill="url(#3@svg-s)" d="M139.548268,180.585222 C138.252248,191.800197 133.007885,195.02601 133.218865,205.306404 C133.309285,210.009458 134.514886,214.380887 136.353427,218.360394 C120.740899,215.164729 104.766691,209.316059 101.87325,201.990148 C98.0153279,192.192118 112.271555,187.247882 115.858217,160.627389 C116.461017,156.165517 116.762417,151.10069 116.641857,145.312315 C116.430877,136.298128 117.395357,128.761182 118.962638,122.490443 C120.740899,127.404532 122.94112,132.891429 125.683861,138.981281 C134.575166,158.697931 141.175829,166.626798 139.548268,180.585222 Z"/>
      <path fill="url(#3@svg-t)" d="M314.963154,123.002956 C310.743552,128.128079 303.208548,128.128079 294.467944,137.473892 C285.72734,146.819704 277.589536,139.885714 261.012528,149.231527 C261.012528,149.231527 261.012528,149.261675 261.042668,149.32197 C261.283788,150.467586 263.966249,163.039212 267.432351,168.6467 C268.276271,170.00335 269.150332,170.937931 270.054532,171.239409 C274.846794,172.746798 290.157922,161.079606 310.833972,155.924335 C310.833972,145.945419 311.979293,133.253202 316.349595,121.133793 C315.897494,121.797044 315.415254,122.430148 314.963154,123.002956 Z" opacity=".77"/>
      <path fill="url(#3@svg-u)" d="M58.3209285,183.449261 C58.3209285,183.449261 54.7041268,180.434483 45.3607222,177.721182 C36.0173176,175.007882 31.4963154,168.073892 31.4963154,168.073892 C31.4963154,168.073892 37.8257185,163.551724 37.5243183,157.823645 C37.5243183,157.823645 37.4640383,157.76335 37.3434783,157.703054 L37.3736183,157.672906 C37.3736183,157.672906 39.4834193,159.180296 41.8946205,158.57734 C44.2154016,158.004532 46.5663228,169.641576 61.0335298,172.98798 C61.0938099,173.80197 61.39521,179.801379 58.3209285,183.449261 Z"/>
      <path fill="url(#3@svg-v)" d="M165.920781,90.4734975 C165.528961,90.5036453 165.197421,90.5337931 165.016581,90.5940887 C164.11238,90.8955665 159.289978,99.9399015 159.892778,102.050246 C160.495578,104.160591 162.002579,109.88867 160.796979,113.506404 C160.796979,113.506404 158.084377,108.381281 154.768976,103.256158 C151.453574,98.1310345 145.124171,91.4985222 143.76787,88.0315271 C143.76787,88.0315271 145.877671,85.3182266 143.76787,81.7004926 C143.25549,80.8262069 142.62255,79.982069 141.929329,79.137931 C142.41157,79.7107389 144.219971,81.5497537 147.716212,82.3034483 C151.905674,83.2078818 154.949816,90.4734975 165.920781,90.4734975 Z"/>
      <path fill="url(#3@svg-w)" d="M360.926676,55.0197044 C360.926676,55.0197044 344.952469,66.4758621 337.718865,77.9320197 C337.718865,77.9320197 333.197863,73.1083744 330.485262,68.2847291 C330.485262,68.2847291 321.835077,69.550936 319.484156,67.6516256 C321.835077,66.8376355 324.547679,65.1493596 327.62196,62.1044335 C327.62196,62.1044335 333.348563,56.8285714 332.806043,52.4872906 C332.655343,51.3115271 333.077303,50.1659113 333.830803,49.2614778 C334.825424,48.0857143 335.850184,45.9753695 335.548784,42.5385222 C338.261385,47.151133 342.209727,52.6380296 347.96647,52.8792118 C354.597273,53.2108374 360.926676,55.0197044 360.926676,55.0197044 Z"/>
      <path fill="#FFCDA8" d="M199.737878,246.789754 C203.68622,246.15665 212.698084,244.287488 212.487104,240.277833 C212.487104,240.277833 211.582903,237.263054 204.9521,240.880788 C199.707738,243.744828 196.814296,242.991133 197.085556,244.860296 C197.266396,246.126502 198.502137,246.97064 199.737878,246.789754 Z"/>
      <path fill="url(#3@svg-x)" d="M214.446205,253.512709 C213.240604,255.472315 211.522623,257.190739 209.925203,258.818719 C205.4042,263.340887 200.280398,261.833498 200.280398,261.833498 C196.964996,263.039409 190.936993,261.833498 186.415991,261.833498 C181.894989,261.833498 170.743183,260.024631 170.743183,260.024631 C168.030582,253.09064 171.647384,246.458128 171.647384,246.458128 C174.058585,246.15665 180.387988,248.869951 184.90899,247.965517 C189.429993,247.061084 198.170597,238.921182 201.787399,238.921182 C203.384819,238.921182 205.765881,239.22266 207.966102,239.524138 C214.536625,240.519015 217.972587,247.905222 214.446205,253.512709 Z"/>
      <path fill="url(#3@svg-y)" d="M333.197863,224.450246 C333.197863,224.450246 325.361459,229.273892 322.950258,230.178325 C320.539057,231.082759 320.237657,226.560591 320.237657,226.560591 C316.319455,223.545813 317.223655,220.229557 317.223655,220.229557 C313.908254,217.817734 315.716654,214.2 315.716654,214.2 C314.511054,211.788177 314.812454,209.376355 318.127856,207.868966 C321.443257,206.361576 322.950258,203.648276 325.361459,202.442365 C327.77266,201.236453 331.088062,203.346798 331.088062,203.346798 C328.375461,206.060099 327.16986,210.582266 327.16986,210.582266 C324.758659,218.722167 333.197863,224.450246 333.197863,224.450246 Z"/>
      <path fill="url(#3@svg-z)" d="M250.192262,235.333596 L262.851069,208.381478 C263.182609,207.657931 263.996389,207.326305 264.749889,207.597635 L276.414075,211.969064 C277.227856,212.270542 277.619676,213.205123 277.257996,213.988966 L264.418349,242.448473 C264.056669,243.232315 263.122329,243.563941 262.368828,243.17202 L250.915623,237.32335 C250.131982,236.961576 249.830582,236.087291 250.192262,235.333596 Z"/>
    </g>
  </g>
</svg>
