<svg xmlns="http://www.w3.org/2000/svg" width="17" height="17" viewBox="0 0 17 17">
  <path fill="#FFF" fill-rule="evenodd" d="M1021.85987,525.936351 C1021.85987,526.450486 1021.44332,526.867676 1020.92941,526.867676 L1016.63304,526.867676 L1016.63304,520.335541 L1018.82462,520.335541 L1019.15299,517.790135 L1016.63304,517.790135 L1016.63304,516.164568 C1016.63304,515.427595 1016.83787,514.925405 1017.89416,514.925405 L1019.24163,514.924946 L1019.24163,512.647865 C1019.00833,512.617081 1018.20876,512.547703 1017.2783,512.547703 C1015.33563,512.547703 1014.00561,513.734027 1014.00561,515.912784 L1014.00561,517.790135 L1011.80852,517.790135 L1011.80852,520.335541 L1014.00561,520.335541 L1014.00561,526.867676 L1005.93046,526.867676 C1005.41655,526.867676 1005,526.450486 1005,525.936351 L1005,510.931324 C1005,510.41673 1005.41655,510 1005.93046,510 L1020.92941,510 C1021.44332,510 1021.85987,510.41673 1021.85987,510.931324 L1021.85987,525.936351" transform="translate(-1005 -510)"/>
</svg>
