<svg xmlns="http://www.w3.org/2000/svg" width="17" height="17" viewBox="0 0 17 17">
  <path fill="#FFF" fill-rule="evenodd" d="M1103.83637,510 L1091.00145,510 C1089.89601,510 1089,510.894108 1089,511.99773 L1089,524.847432 C1089,525.950595 1089.89601,526.845162 1091.00145,526.845162 L1103.83637,526.845162 C1104.94181,526.845162 1105.83782,525.950595 1105.83782,524.847432 L1105.83782,511.99773 C1105.83782,510.894108 1104.94181,510 1103.83637,510 L1103.83637,510 Z M1101.1024,512.631784 C1101.1024,512.341405 1101.338,512.105703 1101.62825,512.105703 L1103.20673,512.105703 C1103.49744,512.105703 1103.73304,512.341405 1103.73304,512.631784 L1103.73304,514.211405 C1103.73304,514.501784 1103.49744,514.737486 1103.20673,514.737486 L1101.62825,514.737486 C1101.338,514.737486 1101.1024,514.501784 1101.1024,514.211405 L1101.1024,512.631784 L1101.1024,512.631784 Z M1097.43843,515.21027 C1099.22679,515.21027 1100.67667,516.657568 1100.67667,518.442108 C1100.67667,520.227108 1099.22679,521.673946 1097.43843,521.673946 C1095.65053,521.673946 1094.20065,520.227108 1094.20065,518.442108 C1094.20065,516.657568 1095.65053,515.21027 1097.43843,515.21027 L1097.43843,515.21027 Z M1104.25935,524.739459 C1104.25935,525.029838 1104.02375,525.266 1103.73304,525.266 L1091.10479,525.266 C1090.81407,525.266 1090.57847,525.029838 1090.57847,524.739459 L1090.57847,516.843189 L1092.68326,516.843189 C1092.40908,517.237865 1092.31631,517.974378 1092.31631,518.442108 C1092.31631,521.260892 1094.61444,523.554514 1097.43843,523.554514 C1100.26287,523.554514 1102.56101,521.260892 1102.56101,518.442108 C1102.56101,517.974378 1102.49441,517.249351 1102.15456,516.843189 L1104.25935,516.843189 L1104.25935,524.739459 L1104.25935,524.739459 Z" transform="translate(-1089 -510)"/>
</svg>
