<svg xmlns="http://www.w3.org/2000/svg" xmlns:xlink="http://www.w3.org/1999/xlink" width="195" height="52" viewBox="0 0 195 52">
  <defs>
    <polygon id="imusion-logo-a" points="0 51.853 194.931 51.853 194.931 .031 0 .031"/>
  </defs>
  <g fill="none" fill-rule="evenodd">
    <polygon fill="#040243" points="69.769 21.826 72.985 21.826 72.985 7.078 69.769 7.078"/>
    <g transform="translate(0 .117)">
      <path fill="#040243" d="M92.1614843 21.7092635L89.160091 21.7092635 89.160091 15.0750652C89.160091 13.4523116 88.4097427 12.9183173 87.530709 12.9183173 86.0300124 12.9183173 85.494091 13.8631558 85.494091 15.1571161L85.494091 21.7092635 82.4926978 21.7092635 82.4926978 15.1364929C82.4926978 14.2122776 82.4926978 12.9183173 80.6918326 12.9183173 79.2768775 12.9183173 78.8266978 13.8631558 78.8266978 15.0544419L78.8266978 21.7092635 75.8251584 21.7092635 75.8251584 10.7821926 78.6980124 10.7821926 78.6980124 12.3843229 78.7408101 12.3843229C79.1267202 11.6653088 79.9628101 10.4946459 81.9781022 10.4946459 83.6288101 10.4946459 84.3793045 11.0697394 85.1509787 12.2405496 85.5368888 11.7065552 86.3729787 10.4946459 88.1954618 10.4946459 90.4250348 10.4946459 92.1614843 11.7475071 92.1614843 14.1505552L92.1614843 21.7092635zM105.101582 21.7092635L102.228728 21.7092635 102.228728 20.1687082 102.185784 20.1687082C101.499852 21.3395184 100.299178 21.9968102 98.7127393 21.9968102 96.4615483 21.9968102 94.8323124 20.7644249 94.8323124 17.9710085L94.8323124 10.7821926 97.8337056 10.7821926 97.8337056 17.5603116C97.8337056 19.2444929 98.8627506 19.5731388 99.7847281 19.5731388 100.770975 19.5731388 102.100043 19.0391445 102.100043 17.0878924L102.100043 10.7821926 105.101582 10.7821926 105.101582 21.7092635zM114.367018 14.1096329C114.238333 13.4112419 113.980962 12.6718992 112.351726 12.6718992 110.722344 12.6718992 110.507917 13.2674686 110.507917 13.7398878 110.507917 15.4651683 117.647108 14.2123071 117.647108 18.2379615 117.647108 21.4215989 114.431288 21.9968397 112.651894 21.9968397 110.057737 21.9968397 107.249299 21.1341994 107.163557 18.2174856L110.250546 18.2174856C110.250546 19.1417008 110.851029 19.8196159 112.737636 19.8196159 114.28113 19.8196159 114.645569 19.100749 114.645569 18.6899048 114.645569 16.8619501 107.570793 18.2379615 107.570793 14.1505847 107.570793 12.5486017 108.62131 10.4946754 112.180243 10.4946754 114.409816 10.4946754 117.068243 11.0285224 117.304142 14.1096329L114.367018 14.1096329z"/>
      <mask id="imusion-logo-b" fill="#fff">
        <use xlink:href="#imusion-logo-a"/>
      </mask>
      <path fill="#040243" d="M119.870079 21.7093371L122.871618 21.7093371 122.871618 10.7822663 119.870079 10.7822663 119.870079 21.7093371zM119.870079 9.48815864L122.871618 9.48815864 122.871618 6.81803966 119.870079 6.81803966 119.870079 9.48815864zM130.872344 12.9183467C128.557029 12.9183467 128.128321 14.8489756 128.128321 16.2457575 128.128321 17.6423921 128.557029 19.5731683 130.872344 19.5731683 133.187804 19.5731683 133.616512 17.6423921 133.616512 16.2457575 133.616512 14.8489756 133.187804 12.9183467 130.872344 12.9183467M130.872344 21.9968397C127.806681 21.9968397 125.04104 20.1893609 125.04104 16.2457575 125.04104 12.3021541 127.806681 10.4946754 130.872344 10.4946754 133.938153 10.4946754 136.703793 12.3021541 136.703793 16.2457575 136.703793 20.1893609 133.938153 21.9968397 130.872344 21.9968397M149.110088 21.7092635L146.108694 21.7092635 146.108694 15.0750652C146.108694 14.2738527 146.065751 12.9183173 144.157818 12.9183173 142.828458 12.9183173 141.799413 13.7809575 141.799413 15.4446629L141.799413 21.7092635 138.79802 21.7092635 138.79802 10.7821926 141.670728 10.7821926 141.670728 12.3843229 141.713672 12.3843229C142.120908 11.7270312 142.97847 10.4946459 145.143919 10.4946459 147.373492 10.4946459 149.110088 11.7475071 149.110088 14.1505552L149.110088 21.7092635z" mask="url(#imusion-logo-b)"/>
      <polygon fill="#040243" points="69.769 32.795 69.769 30.559 81.912 30.559 81.912 32.795 77.128 32.795 77.128 45.101 74.542 45.101 74.532 32.795" mask="url(#imusion-logo-b)"/>
      <path fill="#040243" d="M88.6332551 38.9029677C88.5913337 38.1407921 88.3192101 37.4957269 87.8167382 36.9674776 87.3211315 36.4325994 86.6758056 36.1650867 85.8801764 36.1650867 85.0705247 36.1650867 84.4076708 36.4243501 83.8913225 36.9422878 83.3748281 37.4605201 83.0956933 38.1142765 83.053918 38.9029677L88.6332551 38.9029677zM83.053918 40.4374833C83.053918 40.9990244 83.1585022 41.517404 83.3678169 41.9920329 83.5841427 42.4668091 83.9122101 42.8478969 84.351873 43.1352963 84.791536 43.4162142 85.3287719 43.5565994 85.9640191 43.5565994 87.3316483 43.5565994 88.2179854 42.9750244 88.6228843 41.8114323L90.9047494 41.8114323C90.6326258 42.9281802 90.0428056 43.8006901 89.1355809 44.4291093 88.2355135 45.071081 87.1781315 45.3919195 85.9640191 45.3919195 84.8543449 45.3919195 83.8964348 45.1578459 83.0905809 44.6898459 82.2844348 44.2218459 81.6719742 43.5701518 81.2533449 42.7343218 80.8345697 41.8984918 80.6252551 40.9424578 80.6252551 39.8659252 80.6252551 38.863047 80.8398281 37.9403048 81.2689742 37.0978459 81.6981202 36.2552397 82.3140865 35.585132 83.1165809 35.087081 83.9190753 34.58903 84.8401764 34.3397836 85.8801764 34.3397836 86.9061539 34.3397836 87.8132326 34.5804861 88.6018506 35.0618912 89.3903225 35.5432963 89.9994236 36.1920442 90.4285697 37.0076929 90.8577157 37.8233416 91.0722888 38.7124975 91.0722888 39.6753076 91.0722888 40.0029224 91.0582663 40.2568827 91.0305135 40.4374833L83.053918 40.4374833zM100.003625 38.0907513C99.9266472 37.4755898 99.6650404 36.9975728 99.2185124 36.6567003 98.7718382 36.3290856 98.1960404 36.1651309 97.4911191 36.1651309 96.856164 36.1651309 96.3065124 36.3423433 95.8426022 36.696621 95.3782539 37.0510459 95.0311978 37.5190459 94.8008494 38.1007683 94.5566247 38.6824907 94.4346584 39.2976521 94.4346584 39.9461054 94.4346584 40.5745246 94.5497596 41.1646436 94.7801079 41.7161677 95.0103101 42.2678391 95.3522539 42.7141847 95.8059393 43.0550572 96.2523213 43.3895955 96.793209 43.5564963 97.4284562 43.5564963 97.8958719 43.5564963 98.3111416 43.4631025 98.6741191 43.2757258 99.0369506 43.0886436 99.3336135 42.8143547 99.5639618 42.4533008 99.794164 42.0923943 99.9408157 41.6677031 100.003625 41.1798164L102.400737 41.1798164C102.184411 42.5303433 101.650389 43.5666606 100.799108 44.2887683 99.9408157 45.024281 98.8172652 45.3918164 97.4284562 45.3918164 96.3257933 45.3918164 95.3731416 45.1578901 94.5706472 44.6898901 93.7680067 44.2218901 93.1591978 43.578298 92.7439281 42.7592612 92.3288045 41.9403717 92.1212427 41.0158618 92.1212427 39.9861734 92.1212427 38.9097881 92.3254449 37.9437371 92.7335573 37.0877258 93.1416697 36.2320091 93.749018 35.5599864 94.5548719 35.0719524 95.361018 34.5839184 96.3398157 34.3398278 97.4911191 34.3398278 98.845018 34.3398278 99.9773326 34.6574255 100.888209 35.292621 101.798793 35.9278164 102.302872 36.8605756 102.400737 38.0907513L100.003625 38.0907513zM104.147148 45.1010142L104.147148 30.5588385 106.523665 30.5588385 106.56544 35.9946799C106.85144 35.4998697 107.285845 35.1005156 107.868654 34.7961756 108.451317 34.4918357 109.095036 34.339813 109.799957 34.339813 111.000193 34.339813 111.944227 34.6425326 112.63162 35.2473824 113.318867 35.8526742 113.66271 36.7402096 113.66271 37.910136L113.66271 45.1010142 111.286339 45.1010142 111.286339 38.5018754C111.265452 37.6794504 111.077025 37.0846176 110.721204 36.7166402 110.365092 36.3491048 109.824351 36.1651161 109.098542 36.1651161 108.337822 36.1651161 107.718497 36.4243796 107.240564 36.9423173 106.762485 37.4605496 106.523665 38.1107705 106.523665 38.8929802L106.523665 45.1010142 104.147148 45.1010142zM115.989871 45.1010142L115.989871 34.6005496 118.240478 34.6005496 118.282399 36.1852975C118.624197 35.5967989 119.090006 35.142204 119.679826 34.8212181 120.2695 34.5002323 120.923736 34.339813 121.642534 34.339813 122.84277 34.339813 123.786657 34.6425326 124.474197 35.2473824 125.161444 35.8526742 125.505287 36.7402096 125.505287 37.910136L125.505287 45.1010142 123.129062 45.1010142 123.129062 38.5018754C123.108028 37.6794504 122.919747 37.0846176 122.563781 36.7166402 122.207815 36.3491048 121.666927 36.1651161 120.941118 36.1651161 120.180545 36.1651161 119.560927 36.4243796 119.08314 36.9423173 118.605062 37.4605496 118.366096 38.1107705 118.366096 38.8929802L118.366096 45.1010142 115.989871 45.1010142zM134.448717 43.0350822C134.919784 42.6875807 135.273852 42.2293031 135.511065 41.6611331 135.748279 41.0928159 135.867031 40.4944476 135.867031 39.865881 135.867031 39.2306856 135.748279 38.6290765 135.511065 38.0606119 135.273852 37.4924419 134.921391 37.0343116 134.453829 36.6865156 133.986267 36.3390142 133.420987 36.1650425 132.757987 36.1650425 132.109009 36.1650425 131.552492 36.3390142 131.088436 36.6865156 130.624234 37.0343116 130.273526 37.4924419 130.036312 38.0606119 129.799099 38.6290765 129.680346 39.2306856 129.680346 39.865881 129.680346 40.4944476 129.799099 41.0928159 130.036312 41.6611331 130.273526 42.2293031 130.626133 42.6875807 131.093548 43.0350822 131.56111 43.3827309 132.115728 43.5565552 132.757987 43.5565552 133.413975 43.5565552 133.977503 43.3827309 134.448717 43.0350822M129.821739 44.6847932C128.994706 44.2134051 128.368369 43.5565552 127.942874 42.7140963 127.503211 41.8782663 127.283234 40.9288612 127.283234 39.865881 127.283234 38.7894958 127.503211 37.8333144 127.942874 36.9976317 128.368369 36.1618017 128.992953 35.5099603 129.816481 35.041813 130.639863 34.5739603 131.62056 34.3398867 132.757987 34.3398867 133.902571 34.3398867 134.893492 34.5739603 135.730897 35.041813 136.568447 35.5099603 137.206908 36.160034 137.646571 36.9924759 138.086234 37.8249178 138.306065 38.7827195 138.306065 39.865881 138.306065 40.9356374 138.084481 41.8884306 137.641312 42.7242606 137.197998 43.5599433 136.55793 44.2134051 135.720526 44.6847932 134.883121 45.1561813 133.89556 45.3918754 132.757987 45.3918754 131.627571 45.3918754 130.648627 45.1561813 129.821739 44.6847932" mask="url(#imusion-logo-b)"/>
      <polygon fill="#040243" points="140.14 45.101 142.526 45.101 142.526 30.559 140.14 30.559" mask="url(#imusion-logo-b)"/>
      <path fill="#040243" d="M151.538166 43.0350822C152.00938 42.6875807 152.363301 42.2293031 152.600661 41.6611331 152.837728 41.0928159 152.956627 40.4944476 152.956627 39.865881 152.956627 39.2306856 152.837728 38.6290765 152.600661 38.0606119 152.363301 37.4924419 152.01084 37.0343116 151.543425 36.6865156 151.075863 36.3390142 150.510582 36.1650425 149.847582 36.1650425 149.198604 36.1650425 148.642088 36.3390142 148.177885 36.6865156 147.713829 37.0343116 147.363121 37.4924419 147.125908 38.0606119 146.888694 38.6290765 146.770088 39.2306856 146.770088 39.865881 146.770088 40.4944476 146.888694 41.0928159 147.125908 41.6611331 147.363121 42.2293031 147.715582 42.6875807 148.183144 43.0350822 148.650706 43.3827309 149.205324 43.5565552 149.847582 43.5565552 150.503571 43.5565552 151.066953 43.3827309 151.538166 43.0350822M146.911189 44.6847932C146.084301 44.2134051 145.457818 43.5565552 145.032324 42.7140963 144.592661 41.8782663 144.372683 40.9288612 144.372683 39.865881 144.372683 38.7894958 144.592661 37.8333144 145.032324 36.9976317 145.457818 36.1618017 146.082402 35.5099603 146.906076 35.041813 147.729458 34.5739603 148.710009 34.3398867 149.847582 34.3398867 150.992166 34.3398867 151.983088 34.5739603 152.820492 35.041813 153.657897 35.5099603 154.296503 36.160034 154.736166 36.9924759 155.175683 37.8249178 155.395661 38.7827195 155.395661 39.865881 155.395661 40.9356374 155.17393 41.8884306 154.730762 42.7242606 154.287593 43.5599433 153.64738 44.2134051 152.810121 44.6847932 151.972717 45.1561813 150.985155 45.3918754 149.847582 45.3918754 148.717166 45.3918754 147.738222 45.1561813 146.911189 44.6847932M161.888562 43.2656941C162.530674 43.2656941 163.078281 43.0986459 163.531966 42.7644023 163.985506 42.4300113 164.329348 41.9870538 164.563056 41.4353824 164.796764 40.8838584 164.913764 40.304051 164.913764 39.6953711 164.913764 39.0871331 164.798663 38.5118924 164.568461 37.9703853 164.338258 37.4288782 163.992663 36.9925496 163.531966 36.6616941 163.071562 36.3306912 162.523663 36.1651161 161.888562 36.1651161 161.288371 36.1651161 160.771876 36.3324589 160.339371 36.6665552 159.892697 37.0077224 159.560978 37.4523003 159.344798 38.0005836 159.121461 38.5420907 159.009865 39.1202776 159.009865 39.7354391 159.009865 40.3507479 159.119708 40.9274618 159.339685 41.4654334 159.559517 42.003847 159.889191 42.4384079 160.328854 42.7692635 160.768517 43.1002663 161.288371 43.2656941 161.888562 43.2656941zM167.227326 34.6005496L167.227326 44.5895581C167.227326 45.371915 167.112079 46.052187 166.881876 46.6305212 166.651382 47.2088555 166.306079 47.691881 165.845528 48.079745 165.391697 48.4674618 164.833427 48.7566289 164.170427 48.9472465 163.507573 49.1377167 162.746854 49.2330255 161.888562 49.2330255 161.120685 49.2330255 160.381292 49.1276997 159.66936 48.9171955 158.957719 48.7066912 158.360888 48.3605156 157.879303 47.8789632 157.40473 47.3978527 157.128955 46.7793031 157.052416 46.0237564L159.449674 46.0237564C159.589169 46.6054788 159.878674 46.9998244 160.318337 47.2070878 160.765011 47.4211275 161.333652 47.528221 162.024697 47.528221 163.922697 47.528221 164.871989 46.6355297 164.871989 44.8504419L164.830213 43.2656941C164.502 43.8341586 164.043202 44.2821246 163.453528 44.6095921 162.863854 44.9373541 162.226854 45.1010142 161.543112 45.1010142 160.440303 45.1010142 159.520955 44.8570708 158.784775 44.3688895 158.048449 43.8810028 157.504056 43.2204703 157.151742 42.3881756 156.799281 41.5557337 156.623124 40.6247422 156.623124 39.5950538 156.623124 38.6391671 156.828787 37.7597337 157.240843 36.9574901 157.638584 36.1549518 158.217596 35.5166629 158.978461 35.0418867 159.725011 34.5738867 160.597326 34.339813 161.595404 34.339813 162.321213 34.339813 162.966831 34.4801983 163.531966 34.7611161 163.797225 34.8882436 164.023921 35.0436544 164.212348 35.2274958 164.400775 35.4114844 164.620753 35.683711 164.871989 36.0446176L164.871989 34.6005496 167.227326 34.6005496zM169.553303 45.1010878L171.940045 45.1010878 171.940045 34.6106402 169.553303 34.6106402 169.553303 45.1010878zM169.553303 32.7955014L171.940045 32.7955014 171.940045 30.5589122 169.553303 30.5589122 169.553303 32.7955014zM181.729337 38.9029677C181.687562 38.1407921 181.415438 37.4957269 180.91282 36.9674776 180.417213 36.4325994 179.771888 36.1650867 178.976258 36.1650867 178.166607 36.1650867 177.503753 36.4243501 176.987404 36.9422878 176.47091 37.4605201 176.191921 38.1142765 176.15 38.9029677L181.729337 38.9029677zM176.15 40.4374833C176.15 40.9990244 176.25473 41.517404 176.463899 41.9920329 176.680225 42.4668091 177.008438 42.8478969 177.447955 43.1352963 177.887618 43.4162142 178.425 43.5565994 179.060101 43.5565994 180.42773 43.5565994 181.314067 42.9750244 181.718966 41.8114323L184.000978 41.8114323C183.728708 42.9281802 183.138888 43.8006901 182.231663 44.4291093 181.331596 45.071081 180.274213 45.3919195 179.060101 45.3919195 177.950573 45.3919195 176.992517 45.1578459 176.186663 44.6898459 175.380517 44.2218459 174.768202 43.5701518 174.349573 42.7343218 173.930652 41.8984918 173.721337 40.9424578 173.721337 39.8659252 173.721337 38.863047 173.936056 37.9403048 174.365202 37.0978459 174.794202 36.2552397 175.410169 35.585132 176.212663 35.087081 177.015303 34.58903 177.936258 34.3397836 178.976258 34.3397836 180.002236 34.3397836 180.909315 34.5804861 181.697933 35.0618912 182.486551 35.5432963 183.095506 36.1920442 183.524652 37.0076929 183.953798 37.8233416 184.168371 38.7124975 184.168371 39.6753076 184.168371 40.0029224 184.154494 40.2568827 184.126596 40.4374833L176.15 40.4374833zM187.68658 41.7313258C187.735366 42.3598924 187.977838 42.8211161 188.414142 43.1152918 188.850299 43.4096147 189.413973 43.5566289 190.104872 43.5566289 191.73776 43.5566289 192.554276 43.0852408 192.554276 42.1424646 192.526378 41.8616941 192.409378 41.6295354 192.203715 41.4455467 191.99776 41.2617054 191.744625 41.1161643 191.444748 41.0092181 191.14458 40.902272 190.755456 40.7985666 190.277378 40.6982493 189.799591 40.5980793 189.358029 40.5045382 188.953276 40.4174788 188.241636 40.2636884 187.641153 40.0832351 187.152849 39.8759717 186.650231 39.6687082 186.242119 39.3593598 185.927928 38.9480737 185.614175 38.5369348 185.457007 37.9938074 185.457007 37.3185439 185.457007 36.6030652 185.687209 36.0213428 186.147906 35.5733768 186.608456 35.1254108 187.185715 34.807813 187.880265 34.6205836 188.57467 34.4336487 189.288355 34.339813 190.021029 34.339813 190.600187 34.339813 191.141074 34.3984419 191.643546 34.5154051 192.146018 34.6325156 192.604816 34.8195977 193.020231 35.0769462 193.435209 35.3344419 193.780658 35.6720737 194.056434 36.0899887 194.331917 36.5079037 194.511872 36.9975581 194.595715 37.5592465L192.083209 37.5592465C191.901647 36.6298754 191.158602 36.1651161 189.853636 36.1651161 189.372052 36.1651161 188.921872 36.2403909 188.503243 36.3907932 188.084613 36.5413428 187.875007 36.8069405 187.875007 37.1880283 187.875007 37.4623173 187.969366 37.6879943 188.157793 37.8650595 188.34622 38.042272 188.590299 38.1844249 188.890467 38.2912238 189.197501 38.4050935 189.570849 38.5086516 190.010658 38.6021926 190.45704 38.6960283 190.924894 38.7928102 191.413344 38.8929802 192.097231 39.0533994 192.693771 39.244017 193.2034 39.4646856 193.712737 39.6787252 194.128007 39.9896941 194.449063 40.3974448 194.769973 40.8053428 194.930647 41.3300567 194.930647 41.9720283 194.930647 42.7676431 194.693288 43.4212521 194.218715 43.9327082 193.744142 44.4441643 193.136793 44.813762 192.3974 45.0409122 191.66458 45.2749858 190.886333 45.391949 190.062951 45.391949 189.148715 45.391949 188.328692 45.2514164 187.603029 44.9706459 186.877074 44.7034278 186.308288 44.2921416 185.89667 43.7370822 185.470883 43.1889462 185.251052 42.5203116 185.237029 41.7313258L187.68658 41.7313258z" mask="url(#imusion-logo-b)"/>
      <path fill="#0097B1" d="M36.2417067,7.38685779 C39.6626056,8.12929405 42.5786955,11.301736 44.919864,16.6799796 C46.161291,19.5828465 47.2389764,22.7910844 48.1418191,25.9417246 C49.6130101,20.8081609 50.6189764,15.8283875 51.1058191,12.5758096 C51.8915157,6.81235354 51.3268191,5.54652918 49.1886843,2.99337337 C47.0508416,0.581192068 43.6384146,-0.874660623 39.533336,0.663095751 C35.4282573,1.84244986 30.630673,6.01541303 25.7216393,6.58034221 L25.7214933,6.58034221 L25.7216393,6.58034221 C29.2427404,7.32690312 32.8206618,6.58373031 36.2417067,7.38685779" mask="url(#imusion-logo-b)"/>
      <path fill="#FF6131" d="M6.52354607,35.2031309 C5.28226517,32.3005586 4.20443371,29.0923207 3.30159101,25.9416805 C1.83054607,31.0750969 0.824433708,36.0547229 0.337591011,39.3073008 C-0.448105618,45.0707569 0.116737079,46.3367286 2.25457978,48.8898844 C4.39271461,51.302213 7.80514157,52.7580657 11.9100742,51.2200147 C16.0150067,50.0409552 20.812591,45.8678448 25.7214787,45.3030629 C22.2005236,44.5562074 18.6228944,45.2992329 15.2017034,44.4964 C11.7808045,43.7539637 8.86486067,40.5816691 6.52354607,35.2031309" mask="url(#imusion-logo-b)"/>
      <path fill="#FCB714" d="M51.1057022,39.3074924 C50.6188596,36.0549144 49.6130393,31.0751411 48.1418483,25.9415773 C47.2390056,22.7910844 46.1611742,19.5828465 44.9197472,16.6801269 C42.5787247,11.301736 39.6627809,8.12929405 36.241736,7.38685779 C32.8205449,6.58373031 29.2427697,7.32690312 25.7215225,6.58034221 C20.8124888,6.01541303 16.0150506,1.84244986 11.910118,0.663243059 C7.80503933,-0.874660623 4.39275843,0.581192068 2.2546236,2.99322606 C0.116634831,5.54667649 -0.448207865,6.81250085 0.337634831,12.5759569 C0.824623596,15.8285348 1.83058989,20.8083082 3.3017809,25.9415773 C4.2046236,29.0922176 5.28230899,32.3006028 6.52344382,35.2031751 C8.86475843,40.581566 11.7807022,43.7540079 15.2017472,44.4965915 C18.6229382,45.2992771 22.2005674,44.5562516 25.7215225,45.3029598 L25.7215225,45.3031071 C30.6307022,45.8677416 35.4281404,50.0408521 39.5332191,51.2202062 C43.6384438,52.7581099 47.0507247,51.3022572 49.1887135,48.8900759 C51.3268483,46.3367728 51.8915449,45.0709484 51.1057022,39.3074924" mask="url(#imusion-logo-b)"/>
      <polygon fill="#FFF" points="11.713 17.84 18.064 17.84 18.064 11.435 11.713 11.435" mask="url(#imusion-logo-b)"/>
      <path fill="#FFF" d="M18.0645809,40.4400612 L18.0645809,26.001149 L11.7132775,26.001149 L11.7132775,33.7051037 C11.7132775,37.2484691 14.5594011,40.2632907 18.0645809,40.4400612" mask="url(#imusion-logo-b)"/>
      <polygon fill="#FFF" points="32.508 11.435 26.157 11.435 26.157 18.718 18.935 18.718 18.935 25.123 39.73 25.123 39.73 18.718 32.508 18.718" mask="url(#imusion-logo-b)"/>
      <path fill="#FFF" d="M32.5083551,26.7686867 C29.0031753,26.9458992 26.1569056,29.9607207 26.1569056,33.5036442 L26.1569056,33.7051626 C26.1569056,37.4235309 29.1565461,40.448664 32.8435798,40.448664 L39.7302202,40.448664 L39.7302202,34.0433836 L32.5083551,34.0433836 L32.5083551,26.7686867 Z" mask="url(#imusion-logo-b)"/>
    </g>
  </g>
</svg>
