<svg xmlns="http://www.w3.org/2000/svg" width="18" height="15" viewBox="0 0 18 15">
  <path fill="#FFF" fill-rule="evenodd" d="M1063.72622,512.265108 C1063.04376,512.679541 1062.28966,512.980946 1061.48366,513.142216 C1060.84161,512.439243 1059.92401,512 1058.90813,512 C1056.96087,512 1055.38056,513.620973 1055.38056,515.620081 C1055.38056,515.904027 1055.41087,516.179243 1055.4715,516.444351 C1052.53867,516.293189 1049.9388,514.853703 1048.19729,512.660703 C1047.89326,513.197351 1047.71966,513.819919 1047.71966,514.482919 C1047.71966,515.738162 1048.34241,516.846378 1049.28987,517.495595 C1048.71212,517.478135 1048.16698,517.313649 1047.69027,517.044405 L1047.69027,517.088514 C1047.69027,518.843189 1048.90684,520.307027 1050.52252,520.638297 C1050.22676,520.723297 1049.91446,520.766027 1049.59252,520.766027 C1049.36519,520.766027 1049.14336,520.743973 1048.92843,520.701703 C1049.37759,522.139351 1050.68004,523.186459 1052.22453,523.214486 C1051.01714,524.185784 1049.4947,524.764703 1047.84182,524.764703 C1047.55708,524.764703 1047.27556,524.748162 1047,524.715081 C1048.56148,525.740595 1050.41735,526.340189 1052.40961,526.340189 C1058.90124,526.340189 1062.44994,520.824838 1062.44994,516.040486 C1062.44994,515.882892 1062.44719,515.725757 1062.44121,515.571378 C1063.13056,515.060919 1063.72944,514.423649 1064.20064,513.697703 C1063.5687,513.985324 1062.88807,514.180135 1062.17439,514.267432 C1062.90323,513.819919 1063.46261,513.110514 1063.72622,512.265108" transform="translate(-1047 -512)"/>
</svg>
